<?xml version="1.0" encoding="utf-8"?>
<!-- Generator: Adobe Illustrator 25.3.1, SVG Export Plug-In . SVG Version: 6.00 Build 0)  -->
<!DOCTYPE svg PUBLIC "-//W3C//DTD SVG 1.1//EN" "http://www.w3.org/Graphics/SVG/1.1/DTD/svg11.dtd" [
	<!ENTITY ns_extend "http://ns.adobe.com/Extensibility/1.0/">
	<!ENTITY ns_ai "http://ns.adobe.com/AdobeIllustrator/10.0/">
	<!ENTITY ns_graphs "http://ns.adobe.com/Graphs/1.0/">
	<!ENTITY ns_vars "http://ns.adobe.com/Variables/1.0/">
	<!ENTITY ns_imrep "http://ns.adobe.com/ImageReplacement/1.0/">
	<!ENTITY ns_sfw "http://ns.adobe.com/SaveForWeb/1.0/">
	<!ENTITY ns_custom "http://ns.adobe.com/GenericCustomNamespace/1.0/">
	<!ENTITY ns_adobe_xpath "http://ns.adobe.com/XPath/1.0/">
]>
<svg version="1.1" id="Слой_1" xmlns:x="&ns_extend;" xmlns:i="&ns_ai;" xmlns:graph="&ns_graphs;"
	 xmlns="http://www.w3.org/2000/svg" xmlns:xlink="http://www.w3.org/1999/xlink" x="0px" y="0px" viewBox="0 0 581 434"
	 style="enable-background:new 0 0 581 434;" xml:space="preserve">
<style type="text/css">
	.st0{fill:#FF99C8;}
</style>
<metadata>
	<sfw  xmlns="&ns_sfw;">
		<slices></slices>
		<sliceSourceBounds  bottomLeftOrigin="true" height="977.5" width="1515.8" x="-933.5" y="7.5"></sliceSourceBounds>
	</sfw>
</metadata>
<g>
	<g>
		<path d="M-817.3,19.1c33.4,0,53.9,13.9,61.5,41.8v10.7c0,2.4-1.2,3.6-3.6,3.6c0-10.1-5.4-18.5-16.3-25.3l-3.6,1.7h-3.6l-7.1-5.4
			h-1.9v7.3l3.6,5.4v1.9l-1.7,3.6l-12.9-1.9h-1.7l-41.8,14.6c-19.8,18-31.9,38.6-36.2,61.8c0,18.3,12.1,34.1,36.2,47.2
			c6.8,3.6,14.7,5.4,23.6,5.4c31.5,0,50.8-21.8,58.1-65.4c0-9.2-4.2-23.1-12.6-41.6l7.3,5.4v-1.7c0-1.3-4.9-7.4-14.6-18.2v-2h3.6
			l34.5,21.9c0,3.6,6.6,16.9,19.9,39.9v1.9c-13.5,68.9-46.1,103.4-98,103.4h-9.2c-45.9,0-78.6-26.6-98-79.8
			c-1.1-8.3-1.7-14.9-1.7-19.9C-916.1,57.9-877.3,19.1-817.3,19.1z"/>
		<path d="M-648.3,77.7c36-40.5,56.5-59.9,61.5-58.1l3.4,1.2c-0.5,9.9,0.8,16.7,3.9,20.4l9,1.5c-0.5,11.8-1.1,18.6-1.7,20.4
			c-1.3,3.9-22.1,28.1-62.3,72.5c6.8,29,14.8,64,24.1,104.8l-1.9,6.3c-1.8,1.5-3.5,1.3-5.1-0.5c1.9-1.6,2.1-3.3,0.5-5.1l-3.4-4.1
			c-2.8-3.2-7.7-5.4-14.8-6.3c-0.6-2.6-1.4-4.4-2.2-5.4l-15.8-7.8c0.3-7.3-5.9-22.9-18.7-46.7c-16.7,15.6-35.4,32.9-56.2,52.1
			l-6.3,1.5c-2.1-0.8-2.8-2.4-1.9-4.6c2.3,0.8,3.8,0.1,4.6-2.2l1.7-5.1c1.5-4.1,0.9-9.4-1.7-16.1c1.8-1.8,2.9-3.2,3.4-4.4l-1.2-17.8
			c7.5-3.9,20.4-21.5,38.9-52.8c-16.2-63.7-22-97.5-17.3-101.4l2.7-2.2c8.4,5.2,15.1,7.5,19.9,6.8l5.8-7.3
			c9.9,6.3,15.5,10.2,16.8,11.7C-660.7,31.4-655.9,47.6-648.3,77.7z"/>
		<path d="M-498.2,77.7c36-40.5,56.5-59.9,61.5-58.1l3.4,1.2c-0.5,9.9,0.8,16.7,3.9,20.4l9,1.5c-0.5,11.8-1.1,18.6-1.7,20.4
			c-1.3,3.9-22.1,28.1-62.3,72.5c6.8,29,14.8,64,24.1,104.8l-1.9,6.3c-1.8,1.5-3.5,1.3-5.1-0.5c1.9-1.6,2.1-3.3,0.5-5.1l-3.4-4.1
			c-2.8-3.2-7.7-5.4-14.8-6.3c-0.6-2.6-1.4-4.4-2.2-5.4l-15.8-7.8c0.3-7.3-5.9-22.9-18.7-46.7c-16.7,15.6-35.4,32.9-56.2,52.1
			l-6.3,1.5c-2.1-0.8-2.8-2.4-1.9-4.6c2.3,0.8,3.8,0.1,4.6-2.2l1.7-5.1c1.5-4.1,0.9-9.4-1.7-16.1c1.8-1.8,2.9-3.2,3.4-4.4l-1.2-17.8
			c7.5-3.9,20.4-21.5,38.9-52.8c-16.2-63.7-22-97.5-17.3-101.4l2.7-2.2c8.4,5.2,15.1,7.5,19.9,6.8l5.8-7.3
			c9.9,6.3,15.5,10.2,16.8,11.7C-510.6,31.4-505.8,47.6-498.2,77.7z"/>
	</g>
	<path d="M-740.7-92.2c0,1.3,0.6,1.9,1.9,1.9l-1.9,3.9c2.9,3.6,5.5,10.6,7.8,21.2h1.9c4.2-2.6,8-3.9,11.4-3.9v7.8l-1.7,9.7l3.6,1.9
		c-5.5,25.9-19.6,60-42.3,102.2c-5.4,26.6-20.8,56.2-46.5,88.8c-68.6,132.3-103.9,199.3-106,200.9h-1.9c0-7.5-1.9-13.2-5.8-17.3
		v-5.8l3.9-5.8c-2.3-3.6-4.2-11.9-5.8-25.1c11.2-17.7,36.3-73.7,75.4-168.1c16.7-20.1,31.5-56.8,44.3-109.9
		c5.8-4.5,17.4-27.7,34.8-69.6C-756.8-78.3-747.8-89.3-740.7-92.2z"/>
</g>
<g>
	<path d="M-102.5-551c0,1.3,0.6,1.9,1.9,1.9l-1.9,3.9c2.9,3.6,5.5,10.6,7.8,21.1h1.9c4.2-2.6,8-3.9,11.4-3.9v7.8l-1.7,9.7l3.6,1.9
		c-5.5,25.9-19.6,59.9-42.3,102c-5.3,26.6-20.8,56.1-46.4,88.7c-68.5,132.1-103.8,199-105.9,200.6h-1.9c0-7.4-1.9-13.2-5.8-17.2
		v-5.8l3.9-5.8c-2.3-3.6-4.2-11.9-5.8-25c11.2-17.6,36.3-73.6,75.3-167.8c16.7-20.1,31.4-56.7,44.2-109.8
		c5.8-4.5,17.4-27.7,34.7-69.5C-118.6-537.2-109.6-548.1-102.5-551z"/>
	<path d="M-171.2-446.7c33.4,0,53.8,13.9,61.5,41.8v10.7c0,2.4-1.2,3.6-3.6,3.6c0-10-5.4-18.5-16.3-25.3l-3.6,1.7h-3.6l-7-5.3h-1.9
		v7.3l3.6,5.3v1.9l-1.7,3.6l-12.9-1.9h-1.7l-41.8,14.6c-19.8,18-31.8,38.5-36.2,61.7c0,18.3,12.1,34,36.2,47.1
		c6.8,3.6,14.7,5.3,23.6,5.3c31.4,0,50.8-21.8,58.1-65.3c0-9.2-4.2-23.1-12.6-41.5l7.3,5.3v-1.7c0-1.3-4.9-7.4-14.6-18.2v-1.9h3.6
		l34.5,21.9c0,3.6,6.6,16.8,19.9,39.8v1.9c-13.4,68.8-46.1,103.2-97.9,103.2h-9.2c-45.8,0-78.5-26.6-97.9-79.7
		c-1.1-8.3-1.7-14.9-1.7-19.9C-269.8-408-231.1-446.7-171.2-446.7z"/>
</g>
<g>
	<path class="st0" d="M574,7.8c-1.1,1.7-0.7,3,0.9,4.1l-5.7,3.4c0.9,7-1.5,18.1-7.2,33.5l2.5,1.6c7.5,0.1,13.5,1.5,17.8,4.3l-6.3,10
		l-10.1,11.1l3.1,5.5c-28.1,28.9-73.9,61.2-137.2,96.9c-28.5,29.8-72.3,55.3-131.7,76.4C104.8,368.8,5,426.2,1,426.5l-2.5-1.6
		c6.1-9.6,8.2-18.6,6.5-26.9l4.7-7.5l9.7-4.3c0-6.4,4.3-18.7,12.8-36.9c28.7-13.6,106.5-65.2,233.2-154.7
		c37.8-12.3,86.5-47.4,146.1-105.3c11.2-1.1,44.9-21.5,101.1-61.1C542.1,12.5,562.5,5.8,574,7.8z"/>
	<path class="st0" d="M401,86.1c42.9,27.1,57.9,61.7,45.1,103.7l-8.7,13.7c-2,3.1-4.5,3.7-7.6,1.7c8.2-12.9,8-28.2-0.4-45.7
		l-6.1-0.8l-4.7-3l-4.7-12.6l-2.5-1.6l-5.9,9.4l0.3,9.8l-1.6,2.5l-5.1,3.3l-15-13l-2.2-1.4l-65.6-15.2c-40,7.1-72.2,23.7-96.7,50
		c-14.9,23.5-12.1,53.5,8.3,90c5.9,10.1,14.5,18.8,26,26c40.4,25.5,83,13.2,127.8-36.9c7.5-11.9,13.3-33.1,17.5-63.7l5,12.8l1.4-2.2
		c1.1-1.7-0.3-13.4-3.9-35.3l1.6-2.5l4.7,3l26.6,56.1c-2.9,4.6-5.1,27.1-6.7,67.4l-1.6,2.5C352.9,382,283,399.7,216.4,357.6
		l-11.9-7.5c-58.9-37.2-79.3-97.9-61.2-182c5.3-11.5,9.9-20.5,14-27C242.7,55.8,323.9,37.4,401,86.1z"/>
</g>
<g>
	<path d="M-868.5-303.9c12.2,0,19.7,5.1,22.4,15.3v3.9c0,0.9-0.4,1.3-1.3,1.3c0-3.7-2-6.7-5.9-9.2l-1.3,0.6h-1.3l-2.6-2h-0.7v2.7
		l1.3,2v0.7l-0.6,1.3l-4.7-0.7h-0.6l-15.3,5.3c-7.2,6.6-11.6,14.1-13.2,22.5c0,6.7,4.4,12.4,13.2,17.2c2.5,1.3,5.3,2,8.6,2
		c11.5,0,18.5-7.9,21.2-23.9c0-3.4-1.5-8.4-4.6-15.2l2.7,2v-0.6c0-0.5-1.8-2.7-5.3-6.7v-0.7h1.3l12.6,8c0,1.3,2.4,6.1,7.3,14.5v0.7
		c-4.9,25.1-16.8,37.7-35.7,37.7h-3.4c-16.7,0-28.6-9.7-35.7-29.1c-0.4-3-0.6-5.4-0.6-7.3C-904.5-289.7-890.4-303.9-868.5-303.9z"/>
	<path d="M-781.6-352c0,0.5,0.2,0.7,0.7,0.7l-0.7,1.4c1.1,1.3,2,3.9,2.8,7.7h0.7c1.5-0.9,2.9-1.4,4.2-1.4v2.8l-0.6,3.5l1.3,0.7
		c-2,9.5-7.2,21.9-15.4,37.2c-2,9.7-7.6,20.5-16.9,32.4c-25,48.2-37.9,72.7-38.7,73.2h-0.7c0-2.7-0.7-4.8-2.1-6.3v-2.1l1.4-2.1
		c-0.8-1.3-1.5-4.3-2.1-9.1c4.1-6.4,13.2-26.9,27.5-61.3c6.1-7.3,11.5-20.7,16.1-40.1c2.1-1.7,6.4-10.1,12.7-25.4
		C-787.5-346.9-784.2-350.9-781.6-352z"/>
	<path d="M-756.3-303.9c12.2,0,19.7,5.1,22.4,15.3v3.9c0,0.9-0.4,1.3-1.3,1.3c0-3.7-2-6.7-5.9-9.2l-1.3,0.6h-1.3l-2.6-2h-0.7v2.7
		l1.3,2v0.7l-0.6,1.3l-4.7-0.7h-0.6l-15.3,5.3c-7.2,6.6-11.6,14.1-13.2,22.5c0,6.7,4.4,12.4,13.2,17.2c2.5,1.3,5.3,2,8.6,2
		c11.5,0,18.5-7.9,21.2-23.9c0-3.4-1.5-8.4-4.6-15.2l2.7,2v-0.6c0-0.5-1.8-2.7-5.3-6.7v-0.7h1.3l12.6,8c0,1.3,2.4,6.1,7.3,14.5v0.7
		c-4.9,25.1-16.8,37.7-35.7,37.7h-3.4c-16.7,0-28.6-9.7-35.7-29.1c-0.4-3-0.6-5.4-0.6-7.3C-792.3-289.7-778.1-303.9-756.3-303.9z"/>
	<path d="M-686.9-319.5c0,0.4,0.2,0.6,0.6,0.6l-0.6,1.3c0.9,1.1,1.8,3.4,2.6,6.9h0.6c2.1-1.2,3.8-1.9,5.1-1.9h2
		c8.1,0,13.8,4.4,17.1,13.3v4.5c0,0.8-0.4,1.2-1.2,1.2c0-3.5-1.9-6.5-5.8-8.9l-1.2,0.6h-1.2l-2.6-2h-0.6v2.6l1.2,1.9v0.7l-0.6,1.2
		l-4.4-0.6h-0.6c-4.7,1.3-7,3.6-7,7c-5.4,9-10,19.8-14,32.4c4.7,3.8,9.6,5.8,14.6,5.8c11,0,17.8-7.6,20.3-22.9
		c0-3.3-1.5-8.1-4.4-14.6l2.6,1.9v-0.6c0-0.4-1.7-2.5-5.1-6.4v-0.6h1.3l12.1,7.6c0,1.2,2.3,5.9,7,14v0.6
		c-4.7,24.2-16.1,36.3-34.3,36.3h-3.2c-7.1,0-13.9-2.3-20.4-7h-0.6c-8.9,18.2-20.7,40.9-35.6,68h-0.6c0-2.5-0.7-4.4-2-5.8v-1.9
		l1.3-2c-0.8-1.1-1.4-3.9-2-8.2c3.7-5.8,12-24.2,24.8-55.2c5.5-6.6,10.3-18.7,14.5-36.3c2-1.5,5.8-9.1,11.5-22.9
		C-692.2-314.9-689.3-318.5-686.9-319.5z"/>
	<path d="M-624.9-302.3l1.2,0.6l-0.6,1.2c2.4,3.1,3.6,4.9,3.6,5.4c0.9,0,1.7-0.2,2.4-0.5c7.4,0.4,13.6,0.5,18.7,0.5h1.8
		c1.7,0,3.9-0.2,6.7-0.5c0.4,0.4,2,0.5,4.8,0.5l1.2-0.5l1.2,0.5l3-0.5v0.5c0.8-0.4,1.4-0.5,1.9-0.5c2.4,0.4,3.5,0.9,3.5,1.8v0.6
		c-2.4,0-4,1.8-4.8,5.4c-0.7,0-2.3,1.6-4.8,4.8c-1.8,0-8.1,1.4-18.7,4.3l-5.4,0.6c-0.3,0-1.5-0.2-3.6-0.6c-3.5,0.4-5.7,0.8-6.6,1.2
		l0.5,1.2c-6.8,13.1-10.2,20.3-10.2,21.6c-11.5,22.1-18.1,34-19.9,35.6l-1.2-0.6l0.6-1.2v-1.9c-2-2.2-3-3.4-3-3.5
		c0.4-0.8,0.6-1.4,0.6-1.9c-0.5,0-1.5-1.4-3-4.2c1.4-1.1,3-7.1,4.8-18.1c1.4-4.1,3.2-7.1,5.4-9l-0.5-1.2c2.6-6.7,5-11.1,7.2-13.2
		l-0.6-1.2c4.6-9,8.8-17.8,12.7-26.5L-624.9-302.3z"/>
	<path d="M-543.8-303.9c12.2,0,19.7,5.1,22.4,15.3v3.9c0,0.9-0.4,1.3-1.3,1.3c0-3.7-2-6.7-5.9-9.2l-1.3,0.6h-1.3l-2.6-2h-0.7v2.7
		l1.3,2v0.7l-0.6,1.3l-4.7-0.7h-0.6l-15.3,5.3c-7.2,6.6-11.6,14.1-13.2,22.5c0,6.7,4.4,12.4,13.2,17.2c2.5,1.3,5.3,2,8.6,2
		c11.5,0,18.5-7.9,21.2-23.9c0-3.4-1.5-8.4-4.6-15.2l2.7,2v-0.6c0-0.5-1.8-2.7-5.3-6.7v-0.7h1.3l12.6,8c0,1.3,2.4,6.1,7.3,14.5v0.7
		c-4.9,25.1-16.8,37.7-35.7,37.7h-3.4c-16.7,0-28.6-9.7-35.7-29.1c-0.4-3-0.6-5.4-0.6-7.3C-579.8-289.7-565.7-303.9-543.8-303.9z"/>
	<path d="M-482.2-282.5c13.1-14.8,20.6-21.8,22.4-21.2l1.2,0.4c-0.2,3.6,0.3,6.1,1.4,7.4l3.3,0.5c-0.2,4.3-0.4,6.8-0.6,7.4
		c-0.5,1.4-8,10.2-22.7,26.4c2.5,10.6,5.4,23.3,8.8,38.2l-0.7,2.3c-0.7,0.5-1.3,0.5-1.9-0.2c0.7-0.6,0.8-1.2,0.2-1.9l-1.2-1.5
		c-1-1.2-2.8-2-5.4-2.3c-0.2-0.9-0.5-1.6-0.8-2l-5.8-2.8c0.1-2.7-2.2-8.3-6.8-17c-6.1,5.7-12.9,12-20.5,19l-2.3,0.5
		c-0.8-0.3-1-0.9-0.7-1.7c0.8,0.3,1.4,0,1.7-0.8l0.6-1.9c0.5-1.5,0.3-3.4-0.6-5.9c0.7-0.7,1.1-1.2,1.2-1.6l-0.4-6.5
		c2.7-1.4,7.4-7.8,14.2-19.2c-5.9-23.2-8-35.6-6.3-37l1-0.8c3.1,1.9,5.5,2.7,7.3,2.5l2.1-2.7c3.6,2.3,5.6,3.7,6.1,4.3
		C-486.7-299.4-485-293.5-482.2-282.5z"/>
	<path d="M-427.5-282.5c13.1-14.8,20.6-21.8,22.4-21.2l1.2,0.4c-0.2,3.6,0.3,6.1,1.4,7.4l3.3,0.5c-0.2,4.3-0.4,6.8-0.6,7.4
		c-0.5,1.4-8,10.2-22.7,26.4c2.5,10.6,5.4,23.3,8.8,38.2l-0.7,2.3c-0.7,0.5-1.3,0.5-1.9-0.2c0.7-0.6,0.8-1.2,0.2-1.9l-1.2-1.5
		c-1-1.2-2.8-2-5.4-2.3c-0.2-0.9-0.5-1.6-0.8-2l-5.8-2.8c0.1-2.7-2.2-8.3-6.8-17c-6.1,5.7-12.9,12-20.5,19l-2.3,0.5
		c-0.8-0.3-1-0.9-0.7-1.7c0.8,0.3,1.4,0,1.7-0.8l0.6-1.9c0.5-1.5,0.3-3.4-0.6-5.9c0.7-0.7,1.1-1.2,1.2-1.6l-0.4-6.5
		c2.7-1.4,7.4-7.8,14.2-19.2c-5.9-23.2-8-35.6-6.3-37l1-0.8c3.1,1.9,5.5,2.7,7.3,2.5l2.1-2.7c3.6,2.3,5.6,3.7,6.1,4.3
		C-432-299.4-430.2-293.5-427.5-282.5z"/>
</g>
</svg>
