<?xml version="1.0" encoding="utf-8"?>
<!-- Generator: Adobe Illustrator 25.3.1, SVG Export Plug-In . SVG Version: 6.00 Build 0)  -->
<!DOCTYPE svg [
	<!ENTITY ns_extend "http://ns.adobe.com/Extensibility/1.0/">
	<!ENTITY ns_ai "http://ns.adobe.com/AdobeIllustrator/10.0/">
	<!ENTITY ns_graphs "http://ns.adobe.com/Graphs/1.0/">
	<!ENTITY ns_vars "http://ns.adobe.com/Variables/1.0/">
	<!ENTITY ns_imrep "http://ns.adobe.com/ImageReplacement/1.0/">
	<!ENTITY ns_sfw "http://ns.adobe.com/SaveForWeb/1.0/">
	<!ENTITY ns_custom "http://ns.adobe.com/GenericCustomNamespace/1.0/">
	<!ENTITY ns_adobe_xpath "http://ns.adobe.com/XPath/1.0/">
]>
<svg version="1.2" baseProfile="tiny" id="Слой_1" xmlns:x="&ns_extend;" xmlns:i="&ns_ai;" xmlns:graph="&ns_graphs;"
	 xmlns="http://www.w3.org/2000/svg" xmlns:xlink="http://www.w3.org/1999/xlink" x="0px" y="0px" viewBox="0 0 1024 1024"
	 overflow="visible" xml:space="preserve">
<metadata>
	<sfw  xmlns="&ns_sfw;">
		<slices></slices>
		<sliceSourceBounds  bottomLeftOrigin="true" height="1024" width="446.9" x="288.5" y="-1024"></sliceSourceBounds>
	</sfw>
</metadata>
<g>
	<path d="M725.4,454c6.7,0,10.1-3.1,10.1-9.3V108.8c0-6.2-3.3-9.3-10.1-9.3c-7.1,0-10.7,3.1-10.7,9.3v326H547.5c-3.3,0-6,1-7.9,2.9
		c-1.9,1.9-2.8,4.3-2.8,7c0,6.2,3.6,9.3,10.7,9.3H725.4z M678.9,161c0-6.2-3.3-9.3-10.1-9.3c-2.9,0-5.4,0.9-7.5,2.6
		c-2.1,1.7-3.1,4-3.1,6.7v237.3c0,2.7,1.1,4.9,3.1,6.7c2.1,1.7,4.6,2.6,7.5,2.6c6.7,0,10.1-3.1,10.1-9.3V161z M678.2,494.6
		c0-2.7-1-4.9-3.1-6.7c-2.1-1.7-4.6-2.6-7.5-2.6H512.9c-6.7,0-10.1,3.1-10.1,9.3c0,2.7,0.9,5,2.8,7c1.9,1.9,4.3,2.9,7.2,2.9h154.7
		c2.9,0,5.5-1,7.5-2.9C677.2,499.6,678.2,497.3,678.2,494.6z M512.3,455.1c4.6-1.2,7.8-3.1,9.4-5.8c1.7-2.7,2.1-5.4,1.3-8.1v-0.6
		c-2.1-4.6-5.7-7-10.7-7c-0.8,0-1.5,0.1-1.9,0.3c-0.4,0.2-1,0.3-1.9,0.3c-3.3,0.8-5.7,2.5-6.9,5.2c-1.3,2.7-1.3,5.4,0,8.1v0.6
		C502.8,452.8,506.4,455.1,512.3,455.1z"/>
	<path d="M298.6,454c-6.7,0-10.1-3.1-10.1-9.3V108.8c0-6.2,3.3-9.3,10.1-9.3c7.1,0,10.7,3.1,10.7,9.3v326h167.2c3.3,0,6,1,7.9,2.9
		c1.9,1.9,2.8,4.3,2.8,7c0,6.2-3.6,9.3-10.7,9.3H298.6z M345.1,161c0-6.2,3.3-9.3,10.1-9.3c2.9,0,5.4,0.9,7.5,2.6
		c2.1,1.7,3.1,4,3.1,6.7v237.3c0,2.7-1.1,4.9-3.1,6.7c-2.1,1.7-4.6,2.6-7.5,2.6c-6.7,0-10.1-3.1-10.1-9.3V161z M345.8,494.6
		c0-2.7,1-4.9,3.1-6.7c2.1-1.7,4.6-2.6,7.5-2.6h154.7c6.7,0,10.1,3.1,10.1,9.3c0,2.7-0.9,5-2.8,7c-1.9,1.9-4.3,2.9-7.2,2.9H356.4
		c-2.9,0-5.5-1-7.5-2.9C346.8,499.6,345.8,497.3,345.8,494.6z M511.7,455.1c-4.6-1.2-7.8-3.1-9.4-5.8c-1.7-2.7-2.1-5.4-1.3-8.1v-0.6
		c2.1-4.6,5.7-7,10.7-7c0.8,0,1.5,0.1,1.9,0.3c0.4,0.2,1,0.3,1.9,0.3c3.3,0.8,5.7,2.5,6.9,5.2c1.3,2.7,1.3,5.4,0,8.1v0.6
		C521.2,452.8,517.6,455.1,511.7,455.1z"/>
	<path d="M497.3,395.1V211.8h47.2c2.9,0,5.3-1,7.2-2.9c1.9-1.9,2.8-4.3,2.8-7V54c0-6.6-3.4-9.9-10.1-9.9c-2.9,0-5.5,0.9-7.5,2.6
		c-2.1,1.7-3.1,4.2-3.1,7.3v138.7h-46.5c-2.9,0-5.5,0.9-7.5,2.6c-2.1,1.7-3.1,4-3.1,6.7v183.9H362.1c-7.1,0-10.7,3.1-10.7,9.3
		c0,6.6,3.6,9.9,10.7,9.9h125.1C493.9,404.9,497.3,401.7,497.3,395.1z M438.8,353.9c2.9,0,5.3-1,7.2-2.9c1.9-1.9,2.8-4.3,2.8-7
		c0-6.2-3.4-9.3-10.1-9.3h-76.7c-7.1,0-10.7,3.1-10.7,9.3c0,2.7,0.9,5,2.8,7c1.9,1.9,4.5,2.9,7.9,2.9H438.8z M497.9,9.3
		c0-6.2-3.4-9.3-10.1-9.3c-2.9,0-5.5,0.9-7.5,2.6c-2.1,1.7-3.1,4-3.1,6.7v139.8c0,3.1,1,5.5,3.1,7.3c2.1,1.7,4.6,2.6,7.5,2.6
		c6.7,0,10.1-3.3,10.1-9.9V9.3z M544.4,404.9h81.7c6.7,0,10.1-3.3,10.1-9.9c0-6.2-3.4-9.3-10.1-9.3h-81.7c-2.9,0-5.5,0.9-7.5,2.6
		c-2.1,1.7-3.1,4-3.1,6.7c0,3.1,1,5.5,3.1,7.3C539,404.1,541.5,404.9,544.4,404.9z M533.8,253.5V344c0,2.7,1,5,3.1,7
		c2.1,1.9,4.6,2.9,7.5,2.9h116.3c3.3,0,6-1,7.9-2.9c1.9-1.9,2.8-4.3,2.8-7c0-6.2-3.6-9.3-10.7-9.3H554.5v-81.2
		c0-6.2-3.4-9.3-10.1-9.3c-2.9,0-5.5,0.9-7.5,2.6C534.8,248.6,533.8,250.8,533.8,253.5z M664.5,405.5c3.3-0.8,5.7-2.5,6.9-5.2
		c1.3-2.7,1.5-5.4,0.6-8.1h-0.6c-1.3-5-4.8-7.5-10.7-7.5c-4.6,1.5-7.8,3.6-9.4,6.1c-1.7,2.5-2.1,5.1-1.3,7.8l0.6,0.6
		c1.3,4.6,4.8,7,10.7,7C663.1,406.1,664.1,405.9,664.5,405.5z"/>
	<path d="M725.4,570c6.7,0,10.1,3.1,10.1,9.3v335.9c0,6.2-3.3,9.3-10.1,9.3c-7.1,0-10.7-3.1-10.7-9.3v-326H547.5c-3.3,0-6-1-7.9-2.9
		c-1.9-1.9-2.8-4.3-2.8-7c0-6.2,3.6-9.3,10.7-9.3H725.4z M678.9,863c0,6.2-3.3,9.3-10.1,9.3c-2.9,0-5.4-0.9-7.5-2.6
		c-2.1-1.7-3.1-4-3.1-6.7V625.7c0-2.7,1.1-4.9,3.1-6.7c2.1-1.7,4.6-2.6,7.5-2.6c6.7,0,10.1,3.1,10.1,9.3V863z M678.2,529.4
		c0,2.7-1,4.9-3.1,6.7c-2.1,1.7-4.6,2.6-7.5,2.6H512.9c-6.7,0-10.1-3.1-10.1-9.3c0-2.7,0.9-5,2.8-7c1.9-1.9,4.3-2.9,7.2-2.9h154.7
		c2.9,0,5.5,1,7.5,2.9C677.2,524.4,678.2,526.7,678.2,529.4z M512.3,568.9c4.6,1.2,7.8,3.1,9.4,5.8c1.7,2.7,2.1,5.4,1.3,8.1v0.6
		c-2.1,4.6-5.7,7-10.7,7c-0.8,0-1.5-0.1-1.9-0.3c-0.4-0.2-1-0.3-1.9-0.3c-3.3-0.8-5.7-2.5-6.9-5.2c-1.3-2.7-1.3-5.4,0-8.1v-0.6
		C502.8,571.2,506.4,568.9,512.3,568.9z"/>
	<path d="M298.6,570c-6.7,0-10.1,3.1-10.1,9.3v335.9c0,6.2,3.3,9.3,10.1,9.3c7.1,0,10.7-3.1,10.7-9.3v-326h167.2c3.3,0,6-1,7.9-2.9
		c1.9-1.9,2.8-4.3,2.8-7c0-6.2-3.6-9.3-10.7-9.3H298.6z M345.1,863c0,6.2,3.3,9.3,10.1,9.3c2.9,0,5.4-0.9,7.5-2.6
		c2.1-1.7,3.1-4,3.1-6.7V625.7c0-2.7-1.1-4.9-3.1-6.7c-2.1-1.7-4.6-2.6-7.5-2.6c-6.7,0-10.1,3.1-10.1,9.3V863z M345.8,529.4
		c0,2.7,1,4.9,3.1,6.7c2.1,1.7,4.6,2.6,7.5,2.6h154.7c6.7,0,10.1-3.1,10.1-9.3c0-2.7-0.9-5-2.8-7c-1.9-1.9-4.3-2.9-7.2-2.9H356.4
		c-2.9,0-5.5,1-7.5,2.9C346.8,524.4,345.8,526.7,345.8,529.4z M511.7,568.9c-4.6,1.2-7.8,3.1-9.4,5.8c-1.7,2.7-2.1,5.4-1.3,8.1v0.6
		c2.1,4.6,5.7,7,10.7,7c0.8,0,1.5-0.1,1.9-0.3c0.4-0.2,1-0.3,1.9-0.3c3.3-0.8,5.7-2.5,6.9-5.2c1.3-2.7,1.3-5.4,0-8.1v-0.6
		C521.2,571.2,517.6,568.9,511.7,568.9z"/>
	<path d="M497.3,628.9v183.3h47.2c2.9,0,5.3,1,7.2,2.9c1.9,1.9,2.8,4.3,2.8,7V970c0,6.6-3.4,9.9-10.1,9.9c-2.9,0-5.5-0.9-7.5-2.6
		c-2.1-1.7-3.1-4.2-3.1-7.3V831.4h-46.5c-2.9,0-5.5-0.9-7.5-2.6c-2.1-1.7-3.1-4-3.1-6.7V638.2H362.1c-7.1,0-10.7-3.1-10.7-9.3
		c0-6.6,3.6-9.9,10.7-9.9h125.1C493.9,619.1,497.3,622.3,497.3,628.9z M438.8,670.1c2.9,0,5.3,1,7.2,2.9c1.9,1.9,2.8,4.3,2.8,7
		c0,6.2-3.4,9.3-10.1,9.3h-76.7c-7.1,0-10.7-3.1-10.7-9.3c0-2.7,0.9-5,2.8-7c1.9-1.9,4.5-2.9,7.9-2.9H438.8z M497.9,1014.7
		c0,6.2-3.4,9.3-10.1,9.3c-2.9,0-5.5-0.9-7.5-2.6c-2.1-1.7-3.1-4-3.1-6.7V874.9c0-3.1,1-5.5,3.1-7.3c2.1-1.7,4.6-2.6,7.5-2.6
		c6.7,0,10.1,3.3,10.1,9.9V1014.7z M544.4,619.1h81.7c6.7,0,10.1,3.3,10.1,9.9c0,6.2-3.4,9.3-10.1,9.3h-81.7c-2.9,0-5.5-0.9-7.5-2.6
		c-2.1-1.7-3.1-4-3.1-6.7c0-3.1,1-5.5,3.1-7.3C539,619.9,541.5,619.1,544.4,619.1z M533.8,770.5V680c0-2.7,1-5,3.1-7
		c2.1-1.9,4.6-2.9,7.5-2.9h116.3c3.3,0,6,1,7.9,2.9c1.9,1.9,2.8,4.3,2.8,7c0,6.2-3.6,9.3-10.7,9.3H554.5v81.2
		c0,6.2-3.4,9.3-10.1,9.3c-2.9,0-5.5-0.9-7.5-2.6C534.8,775.4,533.8,773.2,533.8,770.5z M664.5,618.5c3.3,0.8,5.7,2.5,6.9,5.2
		c1.3,2.7,1.5,5.4,0.6,8.1h-0.6c-1.3,5-4.8,7.5-10.7,7.5c-4.6-1.5-7.8-3.6-9.4-6.1c-1.7-2.5-2.1-5.1-1.3-7.8l0.6-0.6
		c1.3-4.6,4.8-7,10.7-7C663.1,617.9,664.1,618.1,664.5,618.5z"/>
</g>
</svg>
