<?xml version="1.0" encoding="utf-8"?>
<!-- Generator: Adobe Illustrator 25.3.1, SVG Export Plug-In . SVG Version: 6.00 Build 0)  -->
<!DOCTYPE svg PUBLIC "-//W3C//DTD SVG 1.1//EN" "http://www.w3.org/Graphics/SVG/1.1/DTD/svg11.dtd" [
	<!ENTITY ns_extend "http://ns.adobe.com/Extensibility/1.0/">
	<!ENTITY ns_ai "http://ns.adobe.com/AdobeIllustrator/10.0/">
	<!ENTITY ns_graphs "http://ns.adobe.com/Graphs/1.0/">
	<!ENTITY ns_vars "http://ns.adobe.com/Variables/1.0/">
	<!ENTITY ns_imrep "http://ns.adobe.com/ImageReplacement/1.0/">
	<!ENTITY ns_sfw "http://ns.adobe.com/SaveForWeb/1.0/">
	<!ENTITY ns_custom "http://ns.adobe.com/GenericCustomNamespace/1.0/">
	<!ENTITY ns_adobe_xpath "http://ns.adobe.com/XPath/1.0/">
]>
<svg version="1.1" id="Слой_1" xmlns:x="&ns_extend;" xmlns:i="&ns_ai;" xmlns:graph="&ns_graphs;"
	 xmlns="http://www.w3.org/2000/svg" xmlns:xlink="http://www.w3.org/1999/xlink" x="0px" y="0px" viewBox="0 0 1366 768"
	 style="enable-background:new 0 0 1366 768;" xml:space="preserve">
<style type="text/css">
	.st0{fill:#FFFFFF;stroke:#000000;stroke-miterlimit:10;}
</style>
<metadata>
	<sfw  xmlns="&ns_sfw;">
		<slices></slices>
		<sliceSourceBounds  bottomLeftOrigin="true" height="768" width="1366" x="-2.1" y="-1.6"></sliceSourceBounds>
	</sfw>
</metadata>
<g id="Слой_2_1_">
	
		<image style="display:none;overflow:visible;enable-background:new    ;" width="1280" height="640" xlink:href="11E2291B.png"  transform="matrix(1.0672 0 0 1.2 -2.1303 1.6456)">
	</image>
</g>
<g id="Слой_4">
</g>
<g id="Слой_1_1_">
	<g>
		<g>
			<path class="st0" d="M345.3,353.6c3.7,0,5.5-1.7,5.5-5.1V163.3c0-3.4-1.8-5.1-5.5-5.1c-3.9,0-5.9,1.7-5.9,5.1v179.8h-92.2
				c-1.8,0-3.3,0.5-4.3,1.6s-1.6,2.3-1.6,3.8c0,3.4,2,5.1,5.9,5.1H345.3z M319.6,192.1c0-3.4-1.8-5.1-5.5-5.1c-1.6,0-3,0.5-4.2,1.4
				c-1.2,1-1.7,2.2-1.7,3.7v130.8c0,1.5,0.6,2.7,1.7,3.7c1.2,1,2.5,1.4,4.2,1.4c3.7,0,5.5-1.7,5.5-5.1V192.1z M319.3,376
				c0-1.5-0.6-2.7-1.7-3.7c-1.2-1-2.5-1.4-4.2-1.4h-85.3c-3.7,0-5.5,1.7-5.5,5.1c0,1.5,0.5,2.8,1.6,3.8c1,1.1,2.4,1.6,4,1.6h85.3
				c1.6,0,3-0.5,4.2-1.6C318.7,378.8,319.3,377.5,319.3,376z M227.8,354.3c2.5-0.6,4.3-1.7,5.2-3.2s1.2-3,0.7-4.5v-0.3
				c-1.2-2.6-3.1-3.8-5.9-3.8c-0.5,0-0.8,0.1-1,0.2s-0.6,0.2-1,0.2c-1.8,0.4-3.1,1.4-3.8,2.9s-0.7,3,0,4.5v0.3
				C222.6,353,224.5,354.3,227.8,354.3z"/>
			<path class="st0" d="M110,353.6c-3.7,0-5.5-1.7-5.5-5.1V163.3c0-3.4,1.8-5.1,5.5-5.1c3.9,0,5.9,1.7,5.9,5.1v179.8h92.2
				c1.8,0,3.3,0.5,4.3,1.6s1.6,2.3,1.6,3.8c0,3.4-2,5.1-5.9,5.1H110z M135.6,192.1c0-3.4,1.8-5.1,5.5-5.1c1.6,0,3,0.5,4.2,1.4
				c1.2,1,1.7,2.2,1.7,3.7v130.8c0,1.5-0.6,2.7-1.7,3.7c-1.2,1-2.5,1.4-4.2,1.4c-3.7,0-5.5-1.7-5.5-5.1V192.1z M136,376
				c0-1.5,0.6-2.7,1.7-3.7c1.2-1,2.5-1.4,4.2-1.4h85.3c3.7,0,5.5,1.7,5.5,5.1c0,1.5-0.5,2.8-1.6,3.8c-1,1.1-2.4,1.6-4,1.6h-85.3
				c-1.6,0-3-0.5-4.2-1.6C136.6,378.8,136,377.5,136,376z M227.5,354.3c-2.5-0.6-4.3-1.7-5.2-3.2s-1.2-3-0.7-4.5v-0.3
				c1.2-2.6,3.1-3.8,5.9-3.8c0.5,0,0.8,0.1,1,0.2s0.6,0.2,1,0.2c1.8,0.4,3.1,1.4,3.8,2.9s0.7,3,0,4.5v0.3
				C232.7,353,230.7,354.3,227.5,354.3z"/>
			<path class="st0" d="M219.5,321.2V220.1h26c1.6,0,2.9-0.5,4-1.6c1-1.1,1.6-2.3,1.6-3.8v-81.6c0-3.6-1.9-5.4-5.5-5.4
				c-1.6,0-3,0.5-4.2,1.4c-1.2,1-1.7,2.3-1.7,4v76.4H214c-1.6,0-3,0.5-4.2,1.4c-1.2,1-1.7,2.2-1.7,3.7V316H145
				c-3.9,0-5.9,1.7-5.9,5.1c0,3.6,2,5.4,5.9,5.4h69C217.7,326.6,219.5,324.8,219.5,321.2z M187.3,298.5c1.6,0,2.9-0.5,4-1.6
				c1-1.1,1.6-2.3,1.6-3.8c0-3.4-1.9-5.1-5.5-5.1H145c-3.9,0-5.9,1.7-5.9,5.1c0,1.5,0.5,2.8,1.6,3.8c1,1.1,2.5,1.6,4.3,1.6H187.3z
				 M219.9,108.5c0-3.4-1.9-5.1-5.5-5.1c-1.6,0-3,0.5-4.2,1.4c-1.2,1-1.7,2.2-1.7,3.7v77.1c0,1.7,0.6,3,1.7,4c1.2,1,2.5,1.4,4.2,1.4
				c3.7,0,5.5-1.8,5.5-5.4V108.5z M245.5,326.6h45.1c3.7,0,5.5-1.8,5.5-5.4c0-3.4-1.9-5.1-5.5-5.1h-45.1c-1.6,0-3,0.5-4.2,1.4
				c-1.2,1-1.7,2.2-1.7,3.7c0,1.7,0.6,3,1.7,4C242.5,326.1,243.9,326.6,245.5,326.6z M239.6,243.1V293c0,1.5,0.6,2.8,1.7,3.8
				c1.2,1.1,2.5,1.6,4.2,1.6h64.1c1.8,0,3.3-0.5,4.3-1.6s1.6-2.3,1.6-3.8c0-3.4-2-5.1-5.9-5.1H251v-44.8c0-3.4-1.9-5.1-5.5-5.1
				c-1.6,0-3,0.5-4.2,1.4C240.2,240.4,239.6,241.6,239.6,243.1z M311.7,326.9c1.8-0.4,3.1-1.4,3.8-2.9c0.7-1.5,0.8-3,0.3-4.5h-0.3
				c-0.7-2.8-2.7-4.2-5.9-4.2c-2.5,0.8-4.3,2-5.2,3.4c-0.9,1.4-1.2,2.8-0.7,4.3l0.3,0.3c0.7,2.6,2.7,3.8,5.9,3.8
				C310.9,327.3,311.5,327.2,311.7,326.9z"/>
			<path class="st0" d="M345.3,417.6c3.7,0,5.5,1.7,5.5,5.1V608c0,3.4-1.8,5.1-5.5,5.1c-3.9,0-5.9-1.7-5.9-5.1V428.2h-92.2
				c-1.8,0-3.3-0.5-4.3-1.6s-1.6-2.3-1.6-3.8c0-3.4,2-5.1,5.9-5.1h98.1V417.6z M319.6,579.2c0,3.4-1.8,5.1-5.5,5.1
				c-1.6,0-3-0.5-4.2-1.4c-1.2-1-1.7-2.2-1.7-3.7V448.3c0-1.5,0.6-2.7,1.7-3.7c1.2-1,2.5-1.4,4.2-1.4c3.7,0,5.5,1.7,5.5,5.1V579.2z
				 M319.3,395.3c0,1.5-0.6,2.7-1.7,3.7c-1.2,1-2.5,1.4-4.2,1.4h-85.3c-3.7,0-5.5-1.7-5.5-5.1c0-1.5,0.5-2.8,1.6-3.8
				c1-1.1,2.4-1.6,4-1.6h85.3c1.6,0,3,0.5,4.2,1.6C318.7,392.5,319.3,393.8,319.3,395.3z M227.8,417c2.5,0.6,4.3,1.7,5.2,3.2
				s1.2,3,0.7,4.5v0.3c-1.2,2.6-3.1,3.8-5.9,3.8c-0.5,0-0.8-0.1-1-0.2s-0.6-0.2-1-0.2c-1.8-0.4-3.1-1.4-3.8-2.9s-0.7-3,0-4.5v-0.3
				C222.6,418.3,224.5,417,227.8,417z"/>
			<path class="st0" d="M110,417.6c-3.7,0-5.5,1.7-5.5,5.1V608c0,3.4,1.8,5.1,5.5,5.1c3.9,0,5.9-1.7,5.9-5.1V428.2h92.2
				c1.8,0,3.3-0.5,4.3-1.6s1.6-2.3,1.6-3.8c0-3.4-2-5.1-5.9-5.1H110V417.6z M135.6,579.2c0,3.4,1.8,5.1,5.5,5.1c1.6,0,3-0.5,4.2-1.4
				c1.2-1,1.7-2.2,1.7-3.7V448.3c0-1.5-0.6-2.7-1.7-3.7c-1.2-1-2.5-1.4-4.2-1.4c-3.7,0-5.5,1.7-5.5,5.1V579.2z M136,395.3
				c0,1.5,0.6,2.7,1.7,3.7c1.2,1,2.5,1.4,4.2,1.4h85.3c3.7,0,5.5-1.7,5.5-5.1c0-1.5-0.5-2.8-1.6-3.8c-1-1.1-2.4-1.6-4-1.6h-85.3
				c-1.6,0-3,0.5-4.2,1.6C136.6,392.5,136,393.8,136,395.3z M227.5,417c-2.5,0.6-4.3,1.7-5.2,3.2s-1.2,3-0.7,4.5v0.3
				c1.2,2.6,3.1,3.8,5.9,3.8c0.5,0,0.8-0.1,1-0.2s0.6-0.2,1-0.2c1.8-0.4,3.1-1.4,3.8-2.9s0.7-3,0-4.5v-0.3
				C232.7,418.3,230.7,417,227.5,417z"/>
			<path class="st0" d="M219.5,450.1v101.1h26c1.6,0,2.9,0.5,4,1.6c1,1.1,1.6,2.3,1.6,3.8v81.6c0,3.6-1.9,5.4-5.5,5.4
				c-1.6,0-3-0.5-4.2-1.4c-1.2-1-1.7-2.3-1.7-4v-76.4H214c-1.6,0-3-0.5-4.2-1.4c-1.2-1-1.7-2.2-1.7-3.7V455.2H145
				c-3.9,0-5.9-1.7-5.9-5.1c0-3.6,2-5.4,5.9-5.4h69C217.7,444.7,219.5,446.5,219.5,450.1z M187.3,472.8c1.6,0,2.9,0.5,4,1.6
				c1,1.1,1.6,2.3,1.6,3.8c0,3.4-1.9,5.1-5.5,5.1H145c-3.9,0-5.9-1.7-5.9-5.1c0-1.5,0.5-2.8,1.6-3.8c1-1.1,2.5-1.6,4.3-1.6H187.3z
				 M219.9,662.8c0,3.4-1.9,5.1-5.5,5.1c-1.6,0-3-0.5-4.2-1.4c-1.2-1-1.7-2.2-1.7-3.7v-77.1c0-1.7,0.6-3,1.7-4
				c1.2-1,2.5-1.4,4.2-1.4c3.7,0,5.5,1.8,5.5,5.4V662.8z M245.5,444.7h45.1c3.7,0,5.5,1.8,5.5,5.4c0,3.4-1.9,5.1-5.5,5.1h-45.1
				c-1.6,0-3-0.5-4.2-1.4c-1.2-1-1.7-2.2-1.7-3.7c0-1.7,0.6-3,1.7-4C242.5,445.1,243.9,444.7,245.5,444.7z M239.6,528.2v-49.9
				c0-1.5,0.6-2.8,1.7-3.8c1.2-1.1,2.5-1.6,4.2-1.6h64.1c1.8,0,3.3,0.5,4.3,1.6s1.6,2.3,1.6,3.8c0,3.4-2,5.1-5.9,5.1H251v44.8
				c0,3.4-1.9,5.1-5.5,5.1c-1.6,0-3-0.5-4.2-1.4C240.2,530.9,239.6,529.6,239.6,528.2z M311.7,444.3c1.8,0.4,3.1,1.4,3.8,2.9
				c0.7,1.5,0.8,3,0.3,4.5h-0.3c-0.7,2.8-2.7,4.2-5.9,4.2c-2.5-0.8-4.3-2-5.2-3.4c-0.9-1.4-1.2-2.8-0.7-4.3l0.3-0.3
				c0.7-2.6,2.7-3.8,5.9-3.8C310.9,444,311.5,444.1,311.7,444.3z"/>
		</g>
		<g>
			<path class="st0" d="M423.5,451.4c-1,0-1.7-0.3-2.3-0.9c-0.6-0.6-0.9-1.4-0.9-2.3V339.8c0-0.9,0.3-1.6,0.9-2.3
				c0.6-0.6,1.4-0.9,2.3-0.9h35.2c9.4,0,17.7,2.4,24.9,7.1c7.3,4.8,12.8,11,16.6,18.6c3.1,6.9,4.7,14.6,4.7,23.1
				c0,5.4-0.6,10.6-1.9,15.6s-3.3,9.6-6,13.8c-2.7,4.2-6.2,7.9-10.4,11.1c-4.2,3.2-9.2,5.7-15.1,7.4c-2.4,0-3.9-0.7-4.3-2.1
				c-0.3-0.9-0.2-1.7,0.2-2.4c0.4-0.8,1.1-1.3,2-1.5c2.2-0.6,4.9-1.7,8.1-3.3c3.3-1.6,6.4-3.9,9.5-7.1s5.7-7.3,7.8-12.4
				c2.2-5.1,3.3-11.4,3.3-19.1c0-6.5-1.1-12.6-3.2-18.3c-2.1-5.7-5.8-10.8-11.1-15.3c-3.5-2.9-7.5-5.1-11.9-6.7s-8.9-2.3-13.3-2.3
				H427v105.4c0,0.9-0.3,1.6-1,2.3C425.3,451.1,424.5,451.4,423.5,451.4z M441.2,326.8c-1,0-1.8-0.3-2.4-0.8c-0.7-0.6-1-1.3-1-2.2
				c0-0.9,0.3-1.6,1-2.3c0.7-0.6,1.5-0.9,2.4-0.9h22c5.8,0,11.5,0.9,16.9,2.6c5.4,1.8,10.4,4.1,15.1,7.1c4.6,3,8.8,6.6,12.4,10.8
				c3.7,4.2,6.6,8.7,8.8,13.6c4.3,9.4,6.5,20,6.5,31.9c0,8.8-1.2,17.1-3.7,24.9c-2.4,7.8-6.1,14.7-11.1,20.5
				c-5,5.8-11.2,10.5-18.6,13.9c-7.5,3.4-16.2,5.2-26.3,5.2h-21.8c-1,0-1.8-0.3-2.4-0.8c-0.7-0.6-1-1.3-1-2.2V354c0-1,0.3-1.8,1-2.3
				c0.7-0.6,1.5-0.8,2.4-0.8c2.2,0,3.3,1.1,3.3,3.2V445h18.5c10.7,0,20.3-2.5,28.8-7.4s14.7-12.1,18.6-21.3
				c3.7-8.3,5.5-18.1,5.5-29.5c0-9-1.5-17.7-4.4-26s-8.1-15.6-15.6-21.7c-5.6-4.5-11.4-7.7-17.4-9.5s-11.2-2.7-15.6-2.7h-21.9V326.8
				z M459.3,435.4c-1.6-0.4-2.7-1-3.3-1.8c-0.5-0.8-0.6-1.7-0.2-2.7c0.3-1.1,0.9-1.8,1.8-2s1.9-0.3,2.8-0.3c0.9,0.4,1.6,1,2,1.8
				s0.5,1.7,0.2,2.5v0.2C462.1,434.7,461,435.4,459.3,435.4z"/>
			<path class="st0" d="M545.4,385.1c0-6,0.8-12,2.5-17.8c1.7-5.9,4.1-11.4,7.3-16.6s7.1-9.9,11.7-14.2c4.6-4.3,9.8-7.8,15.7-10.5
				c0.3-0.2,0.8-0.4,1.6-0.4c1.2,0,2.2,0.5,2.8,1.5c0.5,0.9,0.6,1.7,0.3,2.5s-0.9,1.4-1.7,1.8c-5.3,2.6-10,5.9-14.3,9.7
				c-4.2,3.8-7.7,8.1-10.6,12.8c-2.9,4.7-5,9.7-6.5,15s-2.2,10.7-2.2,16.2c0,7.6,1.5,15.1,4.4,22.3c2.9,7.2,7,13.6,12.2,19.1
				s11.5,9.9,18.7,13.2c7.3,3.3,15.2,5,23.9,5s16.6-1.7,23.8-5s13.4-7.8,18.6-13.3c5.2-5.6,9.3-11.9,12.2-19.1
				c2.9-7.1,4.4-14.5,4.4-22.2c0-7.4-1.4-14.6-4.1-21.5c-2.7-7-6.5-13.1-11.4-18.6c-4.9-5.4-10.8-9.9-17.6-13.4
				c-6.9-3.5-14.4-5.5-22.7-6v13.3c0,2-1.1,3-3.3,3c-6.2,0-11.9,1.2-17.1,3.6c-5.2,2.4-9.5,5.6-13.1,9.6s-6.4,8.6-8.3,13.7
				c-2,5.1-3,10.5-3,16c0,5.4,1,10.6,3,15.8c2,5.1,4.8,9.7,8.4,13.7c3.7,4,8,7.2,13.1,9.6s10.8,3.6,17,3.6s11.9-1.2,17.1-3.6
				c5.2-2.4,9.6-5.5,13.2-9.5c3.7-3.9,6.5-8.5,8.4-13.6c2-5.1,3-10.5,3-16c0-9-2.3-17.1-7-24.2s-11-12.3-19-15.6
				c-0.8-0.2-1.4-0.8-1.7-1.6c-0.3-0.8-0.3-1.6,0.1-2.3c0.4-1.3,1.4-1.9,3.1-1.9c0.5,0,0.9,0.1,1.2,0.2c4.6,1.9,8.8,4.4,12.4,7.4
				c3.7,3.1,6.8,6.6,9.5,10.5c2.6,3.9,4.7,8.2,6.1,12.9c1.4,4.6,2.1,9.5,2.1,14.7c0,6.4-1.2,12.5-3.6,18.4
				c-2.4,5.9-5.7,11.1-9.9,15.6s-9.3,8.1-15.3,10.8c-6,2.7-12.6,4-19.7,4c-7.2,0-13.7-1.4-19.6-4.1c-5.9-2.8-11-6.4-15.3-10.9
				s-7.6-9.7-9.9-15.6c-2.3-5.9-3.5-12-3.5-18.2c0-6,1-11.9,3.2-17.6c2.1-5.7,5.1-10.8,9.1-15.2c3.9-4.4,8.7-8.1,14.1-11.1
				c5.5-2.9,11.6-4.6,18.4-5v-13.5c0-2,1.2-3,3.5-3c9.6,0,18.5,1.8,26.5,5.5s14.9,8.6,20.8,14.7c5.8,6.1,10.4,13.1,13.6,20.9
				c3.3,7.9,4.9,16.1,4.9,24.6s-1.6,16.8-4.9,24.7c-3.3,8-7.8,15-13.6,21c-5.8,6.1-12.8,10.9-20.9,14.6c-8.1,3.6-16.9,5.4-26.4,5.4
				c-9.6,0-18.5-1.8-26.6-5.4s-15-8.5-20.9-14.6c-5.8-6.1-10.4-13.1-13.6-21C547.1,401.8,545.4,393.6,545.4,385.1z M591.5,323.5
				c0.4-1.5,1.6-2.3,3.5-2.3c0.5,0,0.9,0.1,1.2,0.2c0.9,0.3,1.6,0.8,2,1.7c0.4,0.9,0.5,1.8,0.2,2.6c-0.7,1.6-1.8,2.4-3.5,2.4
				c-1.6-0.5-2.7-1.2-3.3-2c-0.5-0.8-0.6-1.7-0.2-2.5L591.5,323.5L591.5,323.5z"/>
			<path class="st0" d="M690.8,385.1c0-6,0.8-12,2.5-17.8c1.7-5.9,4.1-11.4,7.3-16.6s7.1-9.9,11.7-14.2c4.6-4.3,9.8-7.8,15.7-10.5
				c0.3-0.2,0.8-0.4,1.6-0.4c1.2,0,2.2,0.5,2.8,1.5c0.5,0.9,0.6,1.7,0.3,2.5s-0.9,1.4-1.7,1.8c-5.3,2.6-10,5.9-14.3,9.7
				c-4.2,3.8-7.7,8.1-10.6,12.8c-2.9,4.7-5,9.7-6.5,15s-2.2,10.7-2.2,16.2c0,7.6,1.5,15.1,4.4,22.3c2.9,7.2,7,13.6,12.2,19.1
				s11.5,9.9,18.7,13.2c7.3,3.3,15.2,5,23.9,5s16.6-1.7,23.8-5s13.4-7.8,18.6-13.3c5.2-5.6,9.3-11.9,12.2-19.1
				c2.9-7.1,4.4-14.5,4.4-22.2c0-7.4-1.4-14.6-4.1-21.5c-2.7-7-6.5-13.1-11.4-18.6c-4.9-5.4-10.8-9.9-17.6-13.4
				c-6.9-3.5-14.4-5.5-22.7-6v13.3c0,2-1.1,3-3.3,3c-6.2,0-11.9,1.2-17.1,3.6c-5.2,2.4-9.5,5.6-13.1,9.6s-6.4,8.6-8.3,13.7
				c-2,5.1-3,10.5-3,16c0,5.4,1,10.6,3,15.8c2,5.1,4.8,9.7,8.4,13.7c3.7,4,8,7.2,13.1,9.6s10.8,3.6,17,3.6s11.9-1.2,17.1-3.6
				c5.2-2.4,9.6-5.5,13.2-9.5c3.7-3.9,6.5-8.5,8.4-13.6c2-5.1,3-10.5,3-16c0-9-2.3-17.1-7-24.2s-11-12.3-19-15.6
				c-0.8-0.2-1.4-0.8-1.7-1.6c-0.3-0.8-0.3-1.6,0.1-2.3c0.4-1.3,1.4-1.9,3.1-1.9c0.5,0,0.9,0.1,1.2,0.2c4.6,1.9,8.8,4.4,12.4,7.4
				c3.7,3.1,6.8,6.6,9.5,10.5c2.6,3.9,4.7,8.2,6.1,12.9c1.4,4.6,2.1,9.5,2.1,14.7c0,6.4-1.2,12.5-3.6,18.4
				c-2.4,5.9-5.7,11.1-9.9,15.6s-9.3,8.1-15.3,10.8c-6,2.7-12.6,4-19.7,4c-7.2,0-13.7-1.4-19.6-4.1c-5.9-2.8-11-6.4-15.3-10.9
				s-7.6-9.7-9.9-15.6c-2.3-5.9-3.5-12-3.5-18.2c0-6,1-11.9,3.2-17.6c2.1-5.7,5.1-10.8,9.1-15.2c3.9-4.4,8.7-8.1,14.1-11.1
				c5.5-2.9,11.6-4.6,18.4-5v-13.5c0-2,1.2-3,3.5-3c9.6,0,18.5,1.8,26.5,5.5s14.9,8.6,20.8,14.7c5.8,6.1,10.4,13.1,13.6,20.9
				c3.3,7.9,4.9,16.1,4.9,24.6s-1.6,16.8-4.9,24.7c-3.3,8-7.8,15-13.6,21c-5.8,6.1-12.8,10.9-20.9,14.6c-8.1,3.6-16.9,5.4-26.4,5.4
				c-9.6,0-18.5-1.8-26.6-5.4s-15-8.5-20.9-14.6c-5.8-6.1-10.4-13.1-13.6-21C692.4,401.8,690.8,393.6,690.8,385.1z M736.8,323.5
				c0.4-1.5,1.6-2.3,3.5-2.3c0.5,0,0.9,0.1,1.2,0.2c0.9,0.3,1.6,0.8,2,1.7c0.4,0.9,0.5,1.8,0.2,2.6c-0.7,1.6-1.8,2.4-3.5,2.4
				c-1.6-0.5-2.7-1.2-3.3-2c-0.5-0.8-0.6-1.7-0.2-2.5L736.8,323.5L736.8,323.5z"/>
			<path class="st0" d="M847.5,340c0-0.9,0.3-1.6,0.9-2.3c0.6-0.6,1.5-0.9,2.5-0.9h26.5c3.7,0,7.2,0.4,10.5,1.2
				c3.3,0.8,6.2,2.1,8.7,3.9c2.4,1.8,4.4,4,5.9,6.8s2.2,6,2.2,9.8s-0.7,7-2.1,9.8c-1.4,2.8-3.4,5.1-5.9,7s-5.4,3.4-8.8,4.3
				c-3.3,0.9-6.8,1.4-10.5,1.4h-8.3c-2.2,0-3.3-1-3.3-3v-13.1c0-2,1.1-3,3.3-3c0.9,0,1.8,0.3,2.4,0.8c0.7,0.6,1,1.3,1,2.2v10h4.9
				c5.6,0,10.4-1.3,14.5-3.9s6.1-6.8,6.1-12.4c0-2.9-0.6-5.3-1.7-7.2c-1.2-1.9-2.6-3.5-4.5-4.8c-1.8-1.3-4-2.1-6.5-2.6
				s-5.1-0.8-7.8-0.8h-23.2v105.9c0,0.9-0.3,1.6-0.9,2.3c-0.6,0.6-1.4,0.9-2.3,0.9c-1.1,0-1.9-0.3-2.5-0.9s-0.9-1.4-0.9-2.3V340
				H847.5z M869.1,437.7c-2.2,0-3.3-1-3.3-3v-40.4c0-2,1.1-3,3.3-3H885c1.8,0,4.4-0.4,7.8-1.3c3.5-0.9,7-2.6,10.5-5.1
				c8.3-6.3,12.4-15.5,12.4-27.8c0-4.4-0.7-8.5-2-12.2c-1.4-3.8-3.3-7-5.9-9.7c-2.6-2.7-5.8-4.8-9.7-6.4s-8.2-2.3-13.1-2.3h-16.1
				c-1,0-1.8-0.3-2.4-0.9c-0.7-0.6-1-1.4-1-2.3s0.3-1.6,1-2.2s1.5-0.8,2.4-0.8H885c6,0,11.3,0.9,16,2.8s8.6,4.5,11.8,7.8
				s5.6,7.2,7.2,11.7c1.6,4.5,2.4,9.3,2.4,14.5c0,6.1-1.2,12.1-3.5,17.9s-6.2,10.7-11.6,14.6c-3.9,2.9-8,4.9-12.1,6.1
				s-7.6,1.8-10.3,1.8h-12.4v37.2c0,0.9-0.3,1.6-1,2.2C870.9,437.4,870.1,437.7,869.1,437.7z M868.1,357.5c-1.1-0.2-1.8-0.8-2.2-1.6
				c-0.4-0.8-0.5-1.7-0.2-2.5v-0.2c0.7-1.5,1.9-2.3,3.7-2.3c0.4,0,0.7,0.1,1,0.2c1.1,0.3,1.8,0.8,2.2,1.6c0.4,0.8,0.5,1.7,0.2,2.7
				h-0.2c-0.4,1.5-1.6,2.3-3.5,2.3L868.1,357.5z"/>
			<path class="st0" d="M950.6,433.9c-2.2,0-3.3-1-3.3-3V322.2c0-2,1.1-3,3.3-3c2.3,0,3.5,1,3.5,3v105.6h54.2c1.1,0,1.9,0.3,2.5,0.9
				s0.9,1.4,0.9,2.3c0,2-1.2,3-3.5,3h-57.6V433.9z M965.6,339.1c0-2,1.1-3,3.3-3c0.9,0,1.8,0.3,2.4,0.8c0.7,0.6,1,1.3,1,2.2v76.8
				c0,0.9-0.3,1.6-1,2.2s-1.5,0.8-2.4,0.8c-2.2,0-3.3-1-3.3-3V339.1z M965.8,447.1c0-0.9,0.3-1.6,1-2.2s1.5-0.8,2.4-0.8h50.1
				c2.2,0,3.3,1,3.3,3c0,0.9-0.3,1.6-0.9,2.3c-0.6,0.6-1.4,0.9-2.3,0.9h-50.1c-1,0-1.8-0.3-2.4-0.9
				C966.2,448.7,965.8,447.9,965.8,447.1z M1019.6,434.3c-1.5-0.4-2.5-1-3.1-1.9c-0.5-0.9-0.7-1.8-0.4-2.6v-0.2
				c0.7-1.5,1.8-2.3,3.5-2.3c0.3,0,0.5,0,0.6,0.1s0.3,0.1,0.6,0.1c1.1,0.3,1.8,0.8,2.2,1.7c0.4,0.9,0.4,1.8,0,2.6v0.2
				C1022.6,433.5,1021.5,434.3,1019.6,434.3z"/>
			<path class="st0" d="M1052.7,380.9c-1,0-1.8-0.3-2.4-0.9c-0.7-0.6-1-1.4-1-2.3v-54.9c0-0.9,0.3-1.6,1-2.3
				c0.7-0.6,1.5-0.9,2.4-0.9s1.7,0.3,2.3,0.9c0.6,0.6,0.9,1.4,0.9,2.3v51.8h52.3c0.9,0,1.8,0.3,2.4,0.8c0.7,0.6,1,1.3,1,2.2
				c0,0.9-0.3,1.6-1,2.3c-0.7,0.6-1.5,0.9-2.4,0.9h-55.5V380.9z M1052.7,452c-1,0-1.8-0.3-2.4-0.9c-0.7-0.6-1-1.4-1-2.3v-54.5
				c0-0.9,0.3-1.6,1-2.3c0.7-0.6,1.5-0.9,2.4-0.9h55.6c0.9,0,1.8,0.3,2.4,0.9c0.7,0.6,1,1.4,1,2.3s-0.3,1.6-1,2.2s-1.5,0.8-2.4,0.8
				H1056v48.5h70.6c2.2,0,3.3,1,3.3,3c0,0.9-0.3,1.6-0.9,2.3c-0.6,0.6-1.4,0.9-2.3,0.9H1052.7z M1069.4,326.5c-1,0-1.7-0.3-2.3-0.9
				c-0.6-0.6-0.9-1.4-0.9-2.3c0-2,1.1-3,3.3-3h57.2c0.9,0,1.8,0.3,2.4,0.8c0.7,0.6,1,1.3,1,2.2c0,0.9-0.3,1.6-1,2.3
				c-0.7,0.6-1.5,0.9-2.4,0.9H1069.4z M1126.2,336.6c0.9,0,1.8,0.3,2.4,0.9c0.7,0.6,1,1.4,1,2.3s-0.3,1.6-1,2.2s-1.5,0.8-2.4,0.8
				h-52.7v21c0,0.9-0.3,1.6-1,2.3c-0.7,0.6-1.5,0.9-2.4,0.9c-1,0-1.7-0.3-2.3-0.9c-0.6-0.6-0.9-1.4-0.9-2.3v-24
				c0-0.9,0.3-1.6,0.9-2.3c0.6-0.6,1.4-0.9,2.3-0.9H1126.2z M1070.1,404.4c0.9,0,1.8,0.3,2.4,0.8c0.7,0.6,1,1.3,1,2.3v22.2h40.7
				c0.9,0,1.8,0.3,2.4,0.9c0.7,0.6,1,1.4,1,2.3s-0.3,1.6-1,2.2s-1.5,0.8-2.4,0.8H1070c-2.2,0-3.3-1-3.3-3v-25.4
				C1066.8,405.5,1067.9,404.4,1070.1,404.4z M1126.9,429.6c0.9,0.3,1.6,0.8,2,1.6c0.4,0.8,0.5,1.7,0.2,2.5v0.2
				c-0.7,1.5-1.8,2.3-3.5,2.3c-1.5-0.4-2.5-1-3.1-1.8c-0.5-0.8-0.7-1.7-0.4-2.7c0.7-1.5,1.8-2.3,3.5-2.3
				C1126.2,429.4,1126.6,429.5,1126.9,429.6z"/>
			<path class="st0" d="M1200.5,323.7V383h15.3c0.9,0,1.7,0.3,2.3,0.9c0.6,0.6,0.9,1.4,0.9,2.3v47.9c0,2.1-1.1,3.2-3.3,3.2
				c-1,0-1.8-0.3-2.4-0.8c-0.7-0.6-1-1.3-1-2.3v-44.9h-15.1c-1,0-1.8-0.3-2.4-0.8c-0.7-0.6-1-1.3-1-2.2v-59.5h-37.1
				c-2.3,0-3.5-1-3.5-3c0-2.1,1.2-3.2,3.5-3.2h40.5C1199.5,320.5,1200.5,321.5,1200.5,323.7z M1181.6,337c0.9,0,1.7,0.3,2.3,0.9
				c0.6,0.6,0.9,1.4,0.9,2.3c0,2-1.1,3-3.3,3h-24.8c-2.3,0-3.5-1-3.5-3c0-0.9,0.3-1.6,0.9-2.3c0.6-0.6,1.5-0.9,2.5-0.9H1181.6z
				 M1200.8,448.6c0,2-1.1,3-3.3,3c-1,0-1.8-0.3-2.4-0.8c-0.7-0.6-1-1.3-1-2.2v-45.3c0-1,0.3-1.8,1-2.3c0.7-0.6,1.5-0.8,2.4-0.8
				c2.2,0,3.3,1.1,3.3,3.2V448.6z M1215.8,320.5h26.5c2.2,0,3.3,1.1,3.3,3.2c0,2-1.1,3-3.3,3h-26.5c-1,0-1.8-0.3-2.4-0.8
				c-0.7-0.6-1-1.3-1-2.2c0-1,0.3-1.8,1-2.3C1214,320.7,1214.9,320.5,1215.8,320.5z M1212.4,369.5v-29.3c0-0.9,0.3-1.6,1-2.3
				c0.7-0.6,1.5-0.9,2.4-0.9h37.7c1.1,0,1.9,0.3,2.5,0.9s0.9,1.4,0.9,2.3c0,2-1.2,3-3.5,3H1219v26.3c0,2-1.1,3-3.3,3
				c-1,0-1.8-0.3-2.4-0.8C1212.7,371.1,1212.4,370.4,1212.4,369.5z M1254.7,320.3c1.1,0.3,1.8,0.8,2.2,1.7c0.4,0.9,0.5,1.8,0.2,2.6
				h-0.2c-0.4,1.6-1.6,2.4-3.5,2.4c-1.5-0.5-2.5-1.2-3.1-2c-0.5-0.8-0.7-1.7-0.4-2.5l0.2-0.2c0.4-1.5,1.6-2.3,3.5-2.3
				C1254.2,320.1,1254.6,320.2,1254.7,320.3z"/>
		</g>
	</g>
	<g id="Слой_3">
		<g>
			<path class="st0" d="M1077.2,649.1c-0.2-0.2-0.2-0.3-0.2-0.3c-0.2-0.4-0.3-1.1-0.5-1.9l-0.4-3.5c-0.1-2.8-0.2-6.2-0.2-9.7V632
				c0-6.4,0.3-12.8,1-14.7c0.2-0.3,0.7-0.3,1.2,0.1c0.4,0.3,0.8,0.9,0.6,1.2c-0.6,1.9-0.9,9-0.9,16.1c0,3.5,0.1,7,0.3,9.7
				c0.9-2.2,4.4-6.7,6.8-6.3c0.5,0.1,1.1,0.3,1.6,0.8l0.3,0.2c1.1,1,1.5,2.3,1.5,3.6c0,0.8-0.2,1.6-0.4,2.2l-0.4,0.9
				c2.6-0.4,7-2.9,8.9-4.5c0.5-0.5,0.2,1.1-0.3,1.8c-2,2.7-5.8,4.8-10.6,4.8h-0.4l-0.2,0.1c-0.9,0.2-4,0-5.2-0.8l-0.1-0.1l-0.2,0.5
				l-0.3,1.5c0.1,0.4-0.1,0.6-0.1,0.8c-0.1,0-0.1,0.1-0.2,0.2c-0.1,0-0.3,0.2-0.9-0.1C1077.5,649.5,1077.2,649.1,1077.2,649.1z
				 M1081.6,646.1c2.5,0,4.6-2.2,4.6-4.8c0-0.8-0.2-1.3-0.5-1.6l-0.2-0.2h-0.1c-1.8,0.6-3.2,2.8-5.6,6.2l0.1,0.1
				C1080.5,646,1081.1,646.1,1081.6,646.1z"/>
			<path class="st0" d="M1106.6,644c-1.6,2.1-4,4.3-5.8,4.3s-3.5-1.3-4.2-3.1c-0.3-0.8-0.5-1.7-0.5-2.6c0-0.8,0.1-1.5,0.4-2.2
				c0.2-0.6,0.5-1.1,1.1-1.3c0.3-0.1,0.9,0.1,1.3,0.5s0.4,0.9,0.2,1c-0.2,0.1-0.5,0.4-0.8,0.9c-0.1,0.5-0.3,1.2-0.3,2
				c0.1,0.9,0.2,2.4,1.1,3c2.3,1.3,7-5,7.1-6.8c0-0.1,0.1-0.2,0.2-0.2c-0.1-0.1-0.1-0.1,0-0.1c0.1-0.1,0.3-0.2,0.5-0.2
				c0.5,0,1.5,0.6,1.5,1.2c0.1,0.1,0.3,2.3,0.4,5.5v0.2l0.1-0.1c1.5-0.9,8.3-4.2,9.6-3.1c0.5,0.4,0.4,0.5,0,0.6
				c-2.2,0.6-5.7,2.6-8,3.9l-1.6,1.1l-0.1,0.6l-0.2,5c-0.4,6.8-1.9,14.2-6.6,15.2c-1.4,0.3-3.5-0.6-5-2.1s-2.3-3.5-2.1-5.4
				c0.8-4.2,5.1-9.6,10.6-13.6l1.3-1L1106.6,644z M1106.8,650l-1.2,1.1c-4.4,4-8,8.4-8.6,12c-0.3,1.7,0.5,3,1.1,3.8
				c0.8,0.8,1.8,1.2,2.5,1C1104.7,667.1,1106.9,657.6,1106.8,650z"/>
			<path class="st0" d="M1140.5,642.5c0.2,0.7,0.3,1.5,0.1,2.3c-0.5,2.7-2.7,4-5.2,3.9c-2-0.1-3.3-1.8-3.6-3.3
				c-0.4-2.3,1-4.9,2.3-5.3c0.1,0,0.2-0.1,0.3-0.1c0.2-0.8,0.6-1.4,1.7-1.3c1.5,0.2,2.6,0.9,3.5,1.9c1.4,0.2,2.8,0.2,4,0.2
				c2.5,0,4.6-0.2,5.1-0.2c1.6-0.1,1.2,0.6-0.1,1.1C1147.3,642.2,1143.8,642.7,1140.5,642.5z M1133.7,645.3c0.3,1.6,0.9,2.2,1.9,2.1
				c2.4-0.1,3.6-3.2,2.7-5.1c-1.2-0.2-2.3-0.5-3-1l-0.1,0.1C1134.5,641.9,1133.4,643.8,1133.7,645.3z"/>
			<path class="st0" d="M1149.3,649.2c-1-1.6-1.4-5.5-1.4-9.9c0-9,1.5-20.6,2.2-22.8c0.1-0.3,0.4-0.4,0.9-0.2c0.5,0.3,1,0.7,1,1
				c-0.3,1-1.9,14-1.9,23.3c0,4.8,0.4,8.6,1.6,9.5c2.8,1.7,9.3-7.1,10.2-8.1c0.5-0.8,0.6,0.6,0.4,1.2c-1,2.7-5.3,8.5-8.7,8.5
				C1151.9,651.6,1150.4,650.7,1149.3,649.2z"/>
			<path class="st0" d="M1169.3,642.5c0.2,0.7,0.3,1.5,0.1,2.3c-0.5,2.7-2.7,4-5.2,3.9c-2-0.1-3.3-1.8-3.6-3.3
				c-0.4-2.3,1-4.9,2.3-5.3c0.1,0,0.2-0.1,0.3-0.1c0.2-0.8,0.6-1.4,1.7-1.3c1.5,0.2,2.6,0.9,3.5,1.9c1.4,0.2,2.8,0.2,4,0.2
				c2.5,0,4.6-0.2,5.1-0.2c1.6-0.1,1.2,0.6-0.1,1.1C1176.1,642.2,1172.6,642.7,1169.3,642.5z M1162.5,645.3c0.3,1.6,0.9,2.2,1.9,2.1
				c2.4-0.1,3.6-3.2,2.7-5.1c-1.2-0.2-2.3-0.5-3-1l-0.1,0.1C1163.3,641.9,1162.3,643.8,1162.5,645.3z"/>
			<path class="st0" d="M1189.3,648.2c-2.7,0-6-1-8-3.5c-1.2,1.5-1.8,4.2-1.9,6.7c0,0.8-1.5,0.1-1.8-0.8c-0.1-1.9-0.2-3.9-0.2-5.9
				c0-9.6,0.5-19.9,0.6-26.6c0-0.3,0.5-0.5,1-0.3c0.6,0.2,1.1,0.6,1.1,0.9c-0.2,7-0.3,14.7-0.8,24.9c1.7-2.9,4.1-6.4,7.2-6.7
				c1.2-0.1,1.9,0.8,2.2,1.4c0.8,2-3,5.1-5.6,5.8c0.9,1.1,3.7,2.3,5.9,2.1c3.9-0.3,8.5-3.4,10.7-5.2c0.7-0.6,0.1,1.7-0.9,2.6
				C1197.9,644.6,1194.5,648.2,1189.3,648.2z M1182.2,643.1c1.3-0.1,5-3.2,4.6-4.6C1186.1,638.2,1184.3,639.7,1182.2,643.1z"/>
			<path class="st0" d="M1199.6,639.1c0-0.4,0.5-0.4,1.1-0.1c0.5,0.3,0.8,0.8,0.8,1.1l-0.1,2.1c1.3-1.7,5.3-4.9,8.3-4.4
				c1.2,0.2,2,1.4,1.6,1.8c-0.8,0.9-1.5,0.5-1.5,0.1l0.1-0.4c-2.7-0.1-7.2,3.2-8.5,7c-0.2,0.4-0.2,0.8-0.4,2.3
				c0.1,0.7-1.7,0-1.9-0.8C1199,647.3,1198.9,645.9,1199.6,639.1z"/>
			<path class="st0" d="M1213.1,645.2c-0.2-0.5-0.3-1-0.3-1.6c0-2.4,1.6-4.8,4.3-4.9c1.7,0,3.2,1.6,2.6,3.2c-0.7,1.7-3,3-4.9,3
				c0.2,1,2.1,2.8,3.9,2.8c5.1,0,8.9-3.8,11.1-6.2c1.2-1.3,1-0.1,0.3,1.5c-1.5,3.1-5,5.8-8.7,6
				C1218.3,649.1,1214.2,648.5,1213.1,645.2z M1214.8,643.6c2.3-1,3.8-2.5,3.2-3.1C1216.8,639.4,1214.7,642.3,1214.8,643.6z"/>
			<path class="st0" d="M1228,644.4c0-1.2,0.6-2.4,1.9-3.3c1.5-1,3.3-1.5,5.2-1.5c1.5,0,3,0.3,4.4,0.9h0.1l0.9-1.2
				c0.3-0.6,2.2,0.6,1.8,1.2c-0.3,0.8-0.8,1.8-0.9,2.8c-0.1,0.9,0.2,2,1.2,2.3c2.8,0.5,7.4-2.2,9.3-4.4c0.9-0.9,1.7,0.4-1.2,3.4
				c-1.3,1.3-5.1,3.1-7.3,2.5c-1.8-0.4-3.1-1.5-3.8-3.4c-1.5,1.3-5.1,4.1-7.9,4.1c-0.7,0-1.3-0.2-1.9-0.5
				C1228.6,646.5,1228,645.5,1228,644.4z M1238.6,641.6c-0.5-0.2-1.3-0.3-2.1-0.3c-2.7,0-6.3,1-6.9,3.5c-0.2,0.6,0.2,1.2,1,1.3
				C1233.2,645.8,1236.7,643.6,1238.6,641.6z"/>
			<path class="st0" d="M1252,648.2c-0.1,0-0.2,0-0.3-0.1c-0.1,0-0.4-0.2-0.7-0.6c-0.2-0.5-0.1-0.8,0-0.9c0-0.1,0.1-0.1,0.2-0.1
				l0.1-0.1c2.2-1.3,5.2-2.9,7.5-4.8l0.3-0.3l-2.4,0.3c-1.7,0.2-3.4,0.4-5,0.4c-0.4,0-0.8-0.3-1-0.8s-0.1-0.9,0.3-0.9
				c3.2-0.1,6.6-0.6,10.1-1c0.8-0.1,1.6,0.9,1.2,1.4c-1.7,2.1-4.4,3.9-6.9,5.3l-0.1,0.1h0.5c0.9-0.1,1.8-0.1,2.8-0.1
				c1.5,0,2.9,0.1,4.2,0.3c0.5,0.1,0.9,0.5,1,1c0.1,0.4-0.2,0.7-0.7,0.6c-1.1-0.3-2.7-0.4-4.1-0.4c-0.9,0-1.7,0.1-2.5,0.1l-3,0.2
				c-0.4,0.1-0.6,0.1-1,0.1h-0.5V648.2z"/>
		</g>
	</g>
</g>
</svg>
