<?xml version="1.0" encoding="utf-8"?>
<!-- Generator: Adobe Illustrator 25.3.1, SVG Export Plug-In . SVG Version: 6.00 Build 0)  -->
<!DOCTYPE svg [
	<!ENTITY ns_extend "http://ns.adobe.com/Extensibility/1.0/">
	<!ENTITY ns_ai "http://ns.adobe.com/AdobeIllustrator/10.0/">
	<!ENTITY ns_graphs "http://ns.adobe.com/Graphs/1.0/">
	<!ENTITY ns_vars "http://ns.adobe.com/Variables/1.0/">
	<!ENTITY ns_imrep "http://ns.adobe.com/ImageReplacement/1.0/">
	<!ENTITY ns_sfw "http://ns.adobe.com/SaveForWeb/1.0/">
	<!ENTITY ns_custom "http://ns.adobe.com/GenericCustomNamespace/1.0/">
	<!ENTITY ns_adobe_xpath "http://ns.adobe.com/XPath/1.0/">
]>
<svg version="1.2" baseProfile="tiny" id="Слой_1" xmlns:x="&ns_extend;" xmlns:i="&ns_ai;" xmlns:graph="&ns_graphs;"
	 xmlns="http://www.w3.org/2000/svg" xmlns:xlink="http://www.w3.org/1999/xlink" x="0px" y="0px" viewBox="0 0 1024 502"
	 overflow="visible" xml:space="preserve">
<metadata>
	<sfw  xmlns="&ns_sfw;">
		<slices></slices>
		<sliceSourceBounds  bottomLeftOrigin="true" height="501.5" width="1024" x="0" y="-762.7"></sliceSourceBounds>
	</sfw>
</metadata>
<g>
	<g>
		<path d="M213.9,222.6c3.3,0,4.9-1.5,4.9-4.5V53.5c0-3-1.6-4.5-4.9-4.5c-3.5,0-5.2,1.5-5.2,4.5v159.7h-81.9c-1.6,0-2.9,0.5-3.8,1.4
			c-0.9,1-1.4,2.1-1.4,3.4c0,3,1.7,4.5,5.2,4.5H213.9z M191.2,79.1c0-3-1.6-4.5-4.9-4.5c-1.4,0-2.7,0.4-3.7,1.3
			c-1,0.9-1.5,1.9-1.5,3.3v116.2c0,1.3,0.5,2.4,1.5,3.3c1,0.9,2.3,1.3,3.7,1.3c3.3,0,4.9-1.5,4.9-4.5V79.1z M190.8,242.5
			c0-1.3-0.5-2.4-1.5-3.3c-1-0.9-2.3-1.3-3.7-1.3h-75.7c-3.3,0-4.9,1.5-4.9,4.5c0,1.3,0.5,2.5,1.4,3.4c0.9,1,2.1,1.4,3.5,1.4h75.7
			c1.4,0,2.7-0.5,3.7-1.4C190.3,244.9,190.8,243.8,190.8,242.5z M109.6,223.1c2.3-0.6,3.8-1.5,4.6-2.8c0.8-1.3,1-2.7,0.6-4V216
			c-1-2.3-2.8-3.4-5.2-3.4c-0.4,0-0.7,0-0.9,0.1c-0.2,0.1-0.5,0.1-0.9,0.1c-1.6,0.4-2.8,1.2-3.4,2.6c-0.6,1.3-0.6,2.7,0,4v0.3
			C104.9,222,106.7,223.1,109.6,223.1z"/>
		<path d="M4.9,222.6c-3.3,0-4.9-1.5-4.9-4.5V53.5c0-3,1.6-4.5,4.9-4.5c3.5,0,5.2,1.5,5.2,4.5v159.7h81.9c1.6,0,2.9,0.5,3.8,1.4
			c0.9,1,1.4,2.1,1.4,3.4c0,3-1.7,4.5-5.2,4.5H4.9z M27.7,79.1c0-3,1.6-4.5,4.9-4.5c1.4,0,2.7,0.4,3.7,1.3c1,0.9,1.5,1.9,1.5,3.3
			v116.2c0,1.3-0.5,2.4-1.5,3.3c-1,0.9-2.3,1.3-3.7,1.3c-3.3,0-4.9-1.5-4.9-4.5V79.1z M28,242.5c0-1.3,0.5-2.4,1.5-3.3
			c1-0.9,2.3-1.3,3.7-1.3H109c3.3,0,4.9,1.5,4.9,4.5c0,1.3-0.5,2.5-1.4,3.4c-0.9,1-2.1,1.4-3.5,1.4H33.3c-1.4,0-2.7-0.5-3.7-1.4
			C28.5,244.9,28,243.8,28,242.5z M109.3,223.1c-2.3-0.6-3.8-1.5-4.6-2.8c-0.8-1.3-1-2.7-0.6-4V216c1-2.3,2.8-3.4,5.2-3.4
			c0.4,0,0.7,0,0.9,0.1c0.2,0.1,0.5,0.1,0.9,0.1c1.6,0.4,2.8,1.2,3.4,2.6c0.6,1.3,0.6,2.7,0,4v0.3
			C113.9,222,112.2,223.1,109.3,223.1z"/>
		<path d="M102.2,193.7V104h23.1c1.4,0,2.6-0.5,3.5-1.4c0.9-1,1.4-2.1,1.4-3.4V26.7c0-3.2-1.6-4.8-4.9-4.8c-1.4,0-2.7,0.4-3.7,1.3
			c-1,0.9-1.5,2-1.5,3.6v67.9H97.3c-1.4,0-2.7,0.4-3.7,1.3c-1,0.9-1.5,1.9-1.5,3.3v90.1H36c-3.5,0-5.2,1.5-5.2,4.5
			c0,3.2,1.7,4.8,5.2,4.8h61.3C100.6,198.6,102.2,197,102.2,193.7z M73.6,173.6c1.4,0,2.6-0.5,3.5-1.4c0.9-0.9,1.4-2.1,1.4-3.4
			c0-3-1.6-4.5-4.9-4.5H36c-3.5,0-5.2,1.5-5.2,4.5c0,1.3,0.5,2.5,1.4,3.4c0.9,0.9,2.2,1.4,3.8,1.4H73.6z M102.5,4.8
			c0-3-1.6-4.5-4.9-4.5c-1.4,0-2.7,0.4-3.7,1.3c-1,0.9-1.5,1.9-1.5,3.3v68.5c0,1.5,0.5,2.7,1.5,3.6c1,0.9,2.3,1.3,3.7,1.3
			c3.3,0,4.9-1.6,4.9-4.8V4.8z M125.3,198.6h40c3.3,0,4.9-1.6,4.9-4.8c0-3-1.6-4.5-4.9-4.5h-40c-1.4,0-2.7,0.4-3.7,1.3
			c-1,0.9-1.5,1.9-1.5,3.3c0,1.5,0.5,2.7,1.5,3.6C122.7,198.1,123.9,198.6,125.3,198.6z M120.1,124.4v44.3c0,1.3,0.5,2.5,1.5,3.4
			c1,0.9,2.3,1.4,3.7,1.4h57c1.6,0,2.9-0.5,3.8-1.4c0.9-0.9,1.4-2.1,1.4-3.4c0-3-1.7-4.5-5.2-4.5h-52v-39.8c0-3-1.6-4.5-4.9-4.5
			c-1.4,0-2.7,0.4-3.7,1.3C120.6,122,120.1,123.1,120.1,124.4z M184.1,198.9c1.6-0.4,2.8-1.2,3.4-2.6c0.6-1.3,0.7-2.7,0.3-4h-0.3
			c-0.6-2.5-2.4-3.7-5.2-3.7c-2.3,0.8-3.8,1.7-4.6,3c-0.8,1.2-1,2.5-0.6,3.8l0.3,0.3c0.6,2.3,2.4,3.4,5.2,3.4
			C183.4,199.1,183.9,199,184.1,198.9z"/>
		<path d="M213.9,279.4c3.3,0,4.9,1.5,4.9,4.5v164.5c0,3-1.6,4.5-4.9,4.5c-3.5,0-5.2-1.5-5.2-4.5V288.8h-81.9
			c-1.6,0-2.9-0.5-3.8-1.4c-0.9-1-1.4-2.1-1.4-3.4c0-3,1.7-4.5,5.2-4.5H213.9z M191.2,422.9c0,3-1.6,4.5-4.9,4.5
			c-1.4,0-2.7-0.4-3.7-1.3c-1-0.9-1.5-1.9-1.5-3.3V306.7c0-1.3,0.5-2.4,1.5-3.3c1-0.9,2.3-1.3,3.7-1.3c3.3,0,4.9,1.5,4.9,4.5V422.9z
			 M190.8,259.5c0,1.3-0.5,2.4-1.5,3.3c-1,0.9-2.3,1.3-3.7,1.3h-75.7c-3.3,0-4.9-1.5-4.9-4.5c0-1.3,0.5-2.5,1.4-3.4
			c0.9-1,2.1-1.4,3.5-1.4h75.7c1.4,0,2.7,0.5,3.7,1.4C190.3,257.1,190.8,258.2,190.8,259.5z M109.6,278.9c2.3,0.6,3.8,1.5,4.6,2.8
			c0.8,1.3,1,2.6,0.6,4v0.3c-1,2.3-2.8,3.4-5.2,3.4c-0.4,0-0.7,0-0.9-0.1c-0.2-0.1-0.5-0.1-0.9-0.1c-1.6-0.4-2.8-1.2-3.4-2.6
			c-0.6-1.3-0.6-2.7,0-4v-0.3C104.9,280,106.7,278.9,109.6,278.9z"/>
		<path d="M4.9,279.4c-3.3,0-4.9,1.5-4.9,4.5v164.5c0,3,1.6,4.5,4.9,4.5c3.5,0,5.2-1.5,5.2-4.5V288.8h81.9c1.6,0,2.9-0.5,3.8-1.4
			c0.9-1,1.4-2.1,1.4-3.4c0-3-1.7-4.5-5.2-4.5H4.9z M27.7,422.9c0,3,1.6,4.5,4.9,4.5c1.4,0,2.7-0.4,3.7-1.3c1-0.9,1.5-1.9,1.5-3.3
			V306.7c0-1.3-0.5-2.4-1.5-3.3c-1-0.9-2.3-1.3-3.7-1.3c-3.3,0-4.9,1.5-4.9,4.5V422.9z M28,259.5c0,1.3,0.5,2.4,1.5,3.3
			c1,0.9,2.3,1.3,3.7,1.3H109c3.3,0,4.9-1.5,4.9-4.5c0-1.3-0.5-2.5-1.4-3.4c-0.9-1-2.1-1.4-3.5-1.4H33.3c-1.4,0-2.7,0.5-3.7,1.4
			C28.5,257.1,28,258.2,28,259.5z M109.3,278.9c-2.3,0.6-3.8,1.5-4.6,2.8c-0.8,1.3-1,2.6-0.6,4v0.3c1,2.3,2.8,3.4,5.2,3.4
			c0.4,0,0.7,0,0.9-0.1c0.2-0.1,0.5-0.1,0.9-0.1c1.6-0.4,2.8-1.2,3.4-2.6c0.6-1.3,0.6-2.7,0-4v-0.3
			C113.9,280,112.2,278.9,109.3,278.9z"/>
		<path d="M102.2,308.3V398h23.1c1.4,0,2.6,0.5,3.5,1.4c0.9,1,1.4,2.1,1.4,3.4v72.4c0,3.2-1.6,4.8-4.9,4.8c-1.4,0-2.7-0.4-3.7-1.3
			c-1-0.9-1.5-2-1.5-3.6v-67.9H97.3c-1.4,0-2.7-0.4-3.7-1.3c-1-0.9-1.5-1.9-1.5-3.3v-90.1H36c-3.5,0-5.2-1.5-5.2-4.5
			c0-3.2,1.7-4.8,5.2-4.8h61.3C100.6,303.4,102.2,305,102.2,308.3z M73.6,328.4c1.4,0,2.6,0.5,3.5,1.4c0.9,0.9,1.4,2.1,1.4,3.4
			c0,3-1.6,4.5-4.9,4.5H36c-3.5,0-5.2-1.5-5.2-4.5c0-1.3,0.5-2.5,1.4-3.4c0.9-0.9,2.2-1.4,3.8-1.4H73.6z M102.5,497.2
			c0,3-1.6,4.5-4.9,4.5c-1.4,0-2.7-0.4-3.7-1.3c-1-0.9-1.5-1.9-1.5-3.3v-68.5c0-1.5,0.5-2.7,1.5-3.6c1-0.9,2.3-1.3,3.7-1.3
			c3.3,0,4.9,1.6,4.9,4.8V497.2z M125.3,303.4h40c3.3,0,4.9,1.6,4.9,4.8c0,3-1.6,4.5-4.9,4.5h-40c-1.4,0-2.7-0.4-3.7-1.3
			c-1-0.9-1.5-1.9-1.5-3.3c0-1.5,0.5-2.7,1.5-3.6C122.7,303.9,123.9,303.4,125.3,303.4z M120.1,377.6v-44.3c0-1.3,0.5-2.5,1.5-3.4
			c1-0.9,2.3-1.4,3.7-1.4h57c1.6,0,2.9,0.5,3.8,1.4c0.9,0.9,1.4,2.1,1.4,3.4c0,3-1.7,4.5-5.2,4.5h-52v39.8c0,3-1.6,4.5-4.9,4.5
			c-1.4,0-2.7-0.4-3.7-1.3C120.6,380,120.1,378.9,120.1,377.6z M184.1,303.1c1.6,0.4,2.8,1.2,3.4,2.6c0.6,1.3,0.7,2.7,0.3,4h-0.3
			c-0.6,2.5-2.4,3.7-5.2,3.7c-2.3-0.8-3.8-1.7-4.6-3c-0.8-1.2-1-2.5-0.6-3.8l0.3-0.3c0.6-2.3,2.4-3.4,5.2-3.4
			C183.4,302.9,183.9,303,184.1,303.1z"/>
	</g>
	<g>
		<path d="M283.4,309.4c-0.8,0-1.5-0.3-2.1-0.8c-0.5-0.6-0.8-1.2-0.8-2v-96.3c0-0.8,0.3-1.4,0.8-2c0.5-0.6,1.2-0.8,2.1-0.8h31.3
			c8.3,0,15.7,2.1,22.2,6.3c6.4,4.2,11.4,9.7,14.7,16.5c2.8,6.1,4.2,13,4.2,20.5c0,4.8-0.6,9.4-1.7,13.8c-1.1,4.5-2.9,8.5-5.3,12.3
			c-2.4,3.7-5.5,7-9.2,9.8c-3.7,2.8-8.2,5-13.4,6.6c-2.2,0-3.4-0.6-3.8-1.8c-0.2-0.8-0.2-1.5,0.2-2.2c0.4-0.7,1-1.1,1.8-1.3
			c1.9-0.6,4.3-1.5,7.2-2.9c2.9-1.4,5.7-3.5,8.4-6.3c2.7-2.8,5-6.5,7-11c1.9-4.5,2.9-10.1,2.9-16.9c0-5.8-0.9-11.2-2.8-16.3
			c-1.9-5.1-5.2-9.6-9.9-13.6c-3.1-2.6-6.7-4.5-10.6-5.9c-3.9-1.4-7.9-2.1-11.8-2.1h-28.2v93.6c0,0.8-0.3,1.4-0.9,2
			C285,309.1,284.2,309.4,283.4,309.4z M299.1,198.8c-0.8,0-1.6-0.3-2.2-0.8c-0.6-0.5-0.9-1.1-0.9-1.9c0-0.8,0.3-1.4,0.9-2
			c0.6-0.6,1.3-0.8,2.2-0.8h19.5c5.2,0,10.2,0.8,15,2.3c4.8,1.6,9.3,3.7,13.4,6.3c4.1,2.7,7.8,5.9,11,9.6c3.3,3.7,5.8,7.8,7.8,12.1
			c3.9,8.3,5.8,17.8,5.8,28.4c0,7.8-1.1,15.2-3.3,22.1c-2.2,7-5.5,13-9.9,18.2c-4.4,5.2-9.9,9.3-16.5,12.3
			c-6.6,3.1-14.4,4.6-23.3,4.6h-19.3c-0.8,0-1.6-0.3-2.2-0.8c-0.6-0.5-0.9-1.1-0.9-1.9V223c0-0.9,0.3-1.6,0.9-2.1
			c0.6-0.5,1.3-0.8,2.2-0.8c1.9,0,2.9,0.9,2.9,2.8v80.8h16.5c9.5,0,18.1-2.2,25.6-6.6c7.5-4.4,13-10.7,16.5-18.9
			c3.3-7.3,4.9-16.1,4.9-26.2c0-8-1.3-15.7-3.9-23.1c-2.6-7.4-7.2-13.8-13.8-19.3c-4.9-4-10.1-6.8-15.5-8.4
			c-5.4-1.6-10-2.4-13.8-2.4H299.1z M315.2,295.2c-1.4-0.3-2.4-0.9-2.9-1.6c-0.5-0.7-0.5-1.5-0.2-2.4c0.2-1,0.8-1.6,1.6-1.8
			c0.8-0.2,1.7-0.3,2.5-0.3c0.8,0.3,1.4,0.9,1.8,1.6c0.4,0.7,0.4,1.5,0.2,2.3v0.2C317.7,294.5,316.7,295.2,315.2,295.2z"/>
		<path d="M391.7,250.5c0-5.3,0.8-10.6,2.3-15.9c1.5-5.2,3.7-10.1,6.5-14.8c2.8-4.6,6.3-8.8,10.4-12.6c4.1-3.8,8.7-6.9,13.9-9.3
			c0.2-0.2,0.7-0.3,1.4-0.3c1.1,0,1.9,0.4,2.5,1.3c0.5,0.8,0.6,1.5,0.3,2.3c-0.3,0.7-0.8,1.3-1.5,1.6c-4.7,2.3-8.9,5.2-12.7,8.6
			c-3.7,3.4-6.9,7.2-9.4,11.3c-2.5,4.2-4.5,8.6-5.8,13.3c-1.3,4.7-2,9.5-2,14.4c0,6.8,1.3,13.4,3.9,19.8c2.6,6.4,6.2,12,10.8,16.9
			c4.6,4.9,10.2,8.8,16.6,11.8c6.4,2.9,13.5,4.4,21.2,4.4c7.7,0,14.8-1.5,21.2-4.4c6.4-2.9,11.9-6.9,16.5-11.8
			c4.6-4.9,8.3-10.6,10.8-16.9c2.6-6.3,3.9-12.9,3.9-19.7c0-6.6-1.2-12.9-3.6-19.1c-2.4-6.2-5.8-11.7-10.1-16.5
			c-4.3-4.8-9.6-8.8-15.6-11.9c-6.1-3.1-12.8-4.9-20.2-5.3v11.8c0,1.8-1,2.7-2.9,2.7c-5.5,0-10.6,1.1-15.2,3.2
			c-4.6,2.1-8.5,5-11.7,8.5c-3.2,3.6-5.7,7.6-7.4,12.2c-1.7,4.6-2.6,9.3-2.6,14.2c0,4.8,0.9,9.5,2.6,14c1.7,4.6,4.2,8.6,7.5,12.2
			c3.3,3.6,7.1,6.4,11.7,8.5c4.5,2.1,9.6,3.2,15.1,3.2c5.5,0,10.6-1.1,15.2-3.2c4.6-2.1,8.5-4.9,11.8-8.4c3.3-3.5,5.8-7.5,7.5-12.1
			c1.7-4.6,2.6-9.3,2.6-14.2c0-8-2.1-15.2-6.2-21.5c-4.2-6.3-9.8-11-16.9-13.8c-0.7-0.2-1.2-0.7-1.5-1.4c-0.3-0.7-0.3-1.4,0.1-2.1
			c0.4-1.1,1.3-1.7,2.7-1.7c0.5,0,0.8,0.1,1.1,0.2c4.1,1.7,7.8,3.9,11,6.6c3.3,2.7,6.1,5.8,8.4,9.3c2.4,3.5,4.2,7.3,5.4,11.4
			c1.3,4.1,1.9,8.5,1.9,13c0,5.7-1.1,11.1-3.2,16.4c-2.1,5.2-5,9.8-8.8,13.8c-3.7,4-8.3,7.2-13.6,9.6c-5.3,2.4-11.2,3.6-17.5,3.6
			c-6.4,0-12.2-1.2-17.4-3.7c-5.2-2.4-9.8-5.7-13.6-9.7c-3.8-4-6.7-8.6-8.8-13.8c-2.1-5.2-3.1-10.6-3.1-16.2
			c0-5.3,0.9-10.5,2.8-15.6c1.9-5.1,4.5-9.6,8-13.5c3.5-3.9,7.7-7.2,12.6-9.8c4.9-2.6,10.3-4.1,16.4-4.4v-12c0-1.8,1-2.7,3.1-2.7
			c8.6,0,16.4,1.6,23.5,4.9c7.1,3.3,13.3,7.6,18.4,13c5.2,5.4,9.2,11.6,12.1,18.6c2.9,7,4.3,14.3,4.3,21.9c0,7.6-1.4,14.9-4.3,21.9
			c-2.9,7.1-6.9,13.3-12.1,18.7c-5.2,5.4-11.4,9.7-18.5,12.9c-7.2,3.2-15,4.8-23.4,4.8c-8.6,0-16.4-1.6-23.6-4.8
			c-7.2-3.2-13.4-7.5-18.5-12.9c-5.2-5.4-9.2-11.6-12.1-18.7C393.2,265.4,391.7,258.1,391.7,250.5z M432.6,195.8
			c0.4-1.3,1.4-2,3.1-2c0.5,0,0.8,0.1,1.1,0.2c0.8,0.2,1.4,0.7,1.8,1.5c0.4,0.8,0.4,1.6,0.2,2.3c-0.6,1.4-1.6,2.2-3.1,2.2
			c-1.4-0.4-2.4-1-2.9-1.8c-0.5-0.7-0.5-1.5-0.2-2.3V195.8z"/>
		<path d="M520.8,250.5c0-5.3,0.8-10.6,2.3-15.9c1.5-5.2,3.7-10.1,6.5-14.8c2.8-4.6,6.3-8.8,10.4-12.6c4.1-3.8,8.7-6.9,13.9-9.3
			c0.2-0.2,0.7-0.3,1.4-0.3c1.1,0,1.9,0.4,2.5,1.3c0.5,0.8,0.6,1.5,0.3,2.3c-0.3,0.7-0.8,1.3-1.5,1.6c-4.7,2.3-8.9,5.2-12.7,8.6
			c-3.7,3.4-6.9,7.2-9.4,11.3c-2.5,4.2-4.5,8.6-5.8,13.3c-1.3,4.7-2,9.5-2,14.4c0,6.8,1.3,13.4,3.9,19.8c2.6,6.4,6.2,12,10.8,16.9
			c4.6,4.9,10.2,8.8,16.6,11.8c6.4,2.9,13.5,4.4,21.2,4.4c7.7,0,14.8-1.5,21.2-4.4c6.4-2.9,11.9-6.9,16.5-11.8
			c4.6-4.9,8.3-10.6,10.8-16.9c2.6-6.3,3.9-12.9,3.9-19.7c0-6.6-1.2-12.9-3.6-19.1c-2.4-6.2-5.8-11.7-10.1-16.5
			c-4.3-4.8-9.6-8.8-15.6-11.9c-6.1-3.1-12.8-4.9-20.2-5.3v11.8c0,1.8-1,2.7-2.9,2.7c-5.5,0-10.6,1.1-15.2,3.2
			c-4.6,2.1-8.5,5-11.7,8.5c-3.2,3.6-5.7,7.6-7.4,12.2c-1.7,4.6-2.6,9.3-2.6,14.2c0,4.8,0.9,9.5,2.6,14c1.7,4.6,4.2,8.6,7.5,12.2
			c3.3,3.6,7.1,6.4,11.7,8.5c4.5,2.1,9.6,3.2,15.1,3.2c5.5,0,10.6-1.1,15.2-3.2c4.6-2.1,8.5-4.9,11.8-8.4c3.3-3.5,5.8-7.5,7.5-12.1
			c1.7-4.6,2.6-9.3,2.6-14.2c0-8-2.1-15.2-6.2-21.5c-4.2-6.3-9.8-11-16.9-13.8c-0.7-0.2-1.2-0.7-1.5-1.4c-0.3-0.7-0.3-1.4,0.1-2.1
			c0.4-1.1,1.3-1.7,2.7-1.7c0.5,0,0.8,0.1,1.1,0.2c4.1,1.7,7.8,3.9,11,6.6c3.3,2.7,6.1,5.8,8.4,9.3c2.4,3.5,4.2,7.3,5.4,11.4
			c1.3,4.1,1.9,8.5,1.9,13c0,5.7-1.1,11.1-3.2,16.4c-2.1,5.2-5,9.8-8.8,13.8c-3.7,4-8.3,7.2-13.6,9.6c-5.3,2.4-11.2,3.6-17.5,3.6
			c-6.4,0-12.2-1.2-17.4-3.7c-5.2-2.4-9.8-5.7-13.6-9.7c-3.8-4-6.7-8.6-8.8-13.8c-2.1-5.2-3.1-10.6-3.1-16.2
			c0-5.3,0.9-10.5,2.8-15.6c1.9-5.1,4.5-9.6,8-13.5c3.5-3.9,7.7-7.2,12.6-9.8c4.9-2.6,10.3-4.1,16.4-4.4v-12c0-1.8,1-2.7,3.1-2.7
			c8.6,0,16.4,1.6,23.5,4.9c7.1,3.3,13.3,7.6,18.4,13c5.2,5.4,9.2,11.6,12.1,18.6c2.9,7,4.3,14.3,4.3,21.9c0,7.6-1.4,14.9-4.3,21.9
			c-2.9,7.1-6.9,13.3-12.1,18.7c-5.2,5.4-11.4,9.7-18.5,12.9c-7.2,3.2-15,4.8-23.4,4.8c-8.6,0-16.4-1.6-23.6-4.8
			c-7.2-3.2-13.4-7.5-18.5-12.9c-5.2-5.4-9.2-11.6-12.1-18.7C522.3,265.4,520.8,258.1,520.8,250.5z M561.7,195.8
			c0.4-1.3,1.4-2,3.1-2c0.5,0,0.8,0.1,1.1,0.2c0.8,0.2,1.4,0.7,1.8,1.5c0.4,0.8,0.4,1.6,0.2,2.3c-0.6,1.4-1.6,2.2-3.1,2.2
			c-1.4-0.4-2.4-1-2.9-1.8c-0.5-0.7-0.5-1.5-0.2-2.3V195.8z"/>
		<path d="M660,210.5c0-0.8,0.3-1.4,0.8-2c0.5-0.6,1.3-0.8,2.3-0.8h23.5c3.3,0,6.4,0.4,9.3,1.1c3,0.7,5.5,1.9,7.7,3.4
			c2.2,1.6,3.9,3.6,5.2,6c1.3,2.4,2,5.3,2,8.7c0,3.3-0.6,6.2-1.9,8.7c-1.3,2.4-3,4.5-5.2,6.3c-2.2,1.7-4.8,3-7.8,3.8
			c-3,0.8-6.1,1.3-9.3,1.3h-7.4c-1.9,0-2.9-0.9-2.9-2.7v-11.7c0-1.8,1-2.7,2.9-2.7c0.8,0,1.6,0.3,2.2,0.8c0.6,0.5,0.9,1.1,0.9,1.9
			v8.8h4.3c4.9,0,9.2-1.2,12.8-3.5c3.6-2.3,5.4-6,5.4-11c0-2.6-0.5-4.7-1.5-6.4c-1-1.7-2.4-3.1-4-4.3c-1.6-1.1-3.6-1.9-5.8-2.3
			c-2.2-0.4-4.6-0.7-7-0.7H666v94.1c0,0.8-0.3,1.4-0.8,2c-0.5,0.6-1.2,0.8-2.1,0.8c-1,0-1.7-0.3-2.3-0.8c-0.5-0.6-0.8-1.2-0.8-2
			V210.5z M679.2,297.2c-1.9,0-2.9-0.9-2.9-2.7v-35.9c0-1.8,1-2.7,2.9-2.7h14.1c1.6,0,3.9-0.4,7-1.2c3.1-0.8,6.2-2.3,9.3-4.5
			c7.4-5.6,11-13.8,11-24.7c0-3.9-0.6-7.5-1.8-10.8c-1.2-3.3-3-6.2-5.2-8.6c-2.3-2.4-5.2-4.3-8.6-5.7c-3.4-1.4-7.3-2.1-11.7-2.1H679
			c-0.8,0-1.6-0.3-2.2-0.8c-0.6-0.6-0.9-1.2-0.9-2c0-0.8,0.3-1.4,0.9-1.9c0.6-0.5,1.3-0.8,2.2-0.8h14.3c5.3,0,10,0.8,14.2,2.5
			s7.7,4,10.5,6.9c2.8,2.9,5,6.4,6.4,10.4c1.4,4,2.2,8.3,2.2,12.8c0,5.5-1,10.8-3.1,15.9c-2.1,5.2-5.5,9.5-10.3,12.9
			c-3.5,2.6-7.1,4.4-10.8,5.4c-3.7,1.1-6.7,1.6-9.1,1.6h-11v33c0,0.8-0.3,1.4-0.9,1.9C680.8,297,680.1,297.2,679.2,297.2z
			 M678.3,226c-1-0.2-1.6-0.7-2-1.4c-0.4-0.7-0.4-1.5-0.2-2.3v-0.2c0.6-1.3,1.7-2,3.3-2c0.4,0,0.7,0.1,0.9,0.2c1,0.2,1.6,0.7,2,1.4
			c0.4,0.7,0.4,1.5,0.2,2.4h-0.2c-0.4,1.3-1.4,2-3.1,2L678.3,226z"/>
		<path d="M751.5,293.9c-1.9,0-2.9-0.9-2.9-2.7v-96.6c0-1.8,1-2.7,2.9-2.7c2,0,3.1,0.9,3.1,2.7v93.8h48.1c1,0,1.7,0.3,2.3,0.8
			c0.5,0.6,0.8,1.2,0.8,2c0,1.8-1,2.7-3.1,2.7H751.5z M764.9,209.6c0-1.8,1-2.7,2.9-2.7c0.8,0,1.6,0.3,2.2,0.8
			c0.6,0.5,0.9,1.1,0.9,1.9v68.2c0,0.8-0.3,1.4-0.9,1.9c-0.6,0.5-1.3,0.8-2.2,0.8c-1.9,0-2.9-0.9-2.9-2.7V209.6z M765.1,305.6
			c0-0.8,0.3-1.4,0.9-1.9c0.6-0.5,1.3-0.8,2.2-0.8h44.5c1.9,0,2.9,0.9,2.9,2.7c0,0.8-0.3,1.4-0.8,2c-0.5,0.6-1.2,0.8-2.1,0.8h-44.5
			c-0.8,0-1.6-0.3-2.2-0.8C765.4,307,765.1,306.3,765.1,305.6z M812.8,294.2c-1.3-0.3-2.2-0.9-2.7-1.7c-0.5-0.8-0.6-1.6-0.4-2.3V290
			c0.6-1.3,1.6-2,3.1-2c0.2,0,0.4,0,0.5,0.1c0.1,0.1,0.3,0.1,0.5,0.1c1,0.2,1.6,0.7,2,1.5c0.4,0.8,0.4,1.6,0,2.3v0.2
			C815.6,293.5,814.5,294.2,812.8,294.2z"/>
		<path d="M842.3,246.8c-0.8,0-1.6-0.3-2.2-0.8c-0.6-0.6-0.9-1.2-0.9-2v-48.7c0-0.8,0.3-1.4,0.9-2c0.6-0.6,1.3-0.8,2.2-0.8
			c0.8,0,1.5,0.3,2.1,0.8c0.5,0.6,0.8,1.2,0.8,2v46.1h46.5c0.8,0,1.6,0.3,2.2,0.8c0.6,0.5,0.9,1.1,0.9,1.9c0,0.8-0.3,1.4-0.9,2
			c-0.6,0.6-1.3,0.8-2.2,0.8H842.3z M842.3,309.9c-0.8,0-1.6-0.3-2.2-0.8c-0.6-0.6-0.9-1.2-0.9-2v-48.4c0-0.8,0.3-1.4,0.9-2
			c0.6-0.6,1.3-0.8,2.2-0.8h49.4c0.8,0,1.6,0.3,2.2,0.8c0.6,0.6,0.9,1.2,0.9,2c0,0.8-0.3,1.4-0.9,1.9c-0.6,0.5-1.3,0.8-2.2,0.8
			h-46.5v43h62.7c1.9,0,2.9,0.9,2.9,2.7c0,0.8-0.3,1.4-0.8,2c-0.5,0.6-1.2,0.8-2.1,0.8H842.3z M857.1,198.4c-0.8,0-1.5-0.3-2.1-0.8
			c-0.5-0.6-0.8-1.2-0.8-2c0-1.8,1-2.7,2.9-2.7h50.8c0.8,0,1.6,0.3,2.2,0.8c0.6,0.5,0.9,1.1,0.9,1.9c0,0.8-0.3,1.4-0.9,2
			c-0.6,0.6-1.3,0.8-2.2,0.8H857.1z M907.6,207.5c0.8,0,1.6,0.3,2.2,0.8c0.6,0.6,0.9,1.2,0.9,2c0,0.8-0.3,1.4-0.9,1.9
			c-0.6,0.5-1.3,0.8-2.2,0.8h-46.8v18.7c0,0.8-0.3,1.4-0.9,2c-0.6,0.6-1.3,0.8-2.2,0.8c-0.8,0-1.5-0.3-2.1-0.8
			c-0.5-0.6-0.8-1.2-0.8-2v-21.4c0-0.8,0.3-1.4,0.8-2c0.5-0.6,1.2-0.8,2.1-0.8H907.6z M857.7,267.7c0.8,0,1.6,0.3,2.2,0.8
			c0.6,0.5,0.9,1.2,0.9,2.1v19.7h36.2c0.8,0,1.6,0.3,2.2,0.8c0.6,0.6,0.9,1.2,0.9,2c0,0.8-0.3,1.4-0.9,1.9c-0.6,0.5-1.3,0.8-2.2,0.8
			h-39.2c-1.9,0-2.9-0.9-2.9-2.7v-22.5C854.8,268.6,855.8,267.7,857.7,267.7z M908.1,290c0.8,0.2,1.4,0.7,1.8,1.4
			c0.4,0.7,0.4,1.5,0.2,2.3v0.2c-0.6,1.3-1.6,2-3.1,2c-1.3-0.3-2.2-0.9-2.7-1.6c-0.5-0.7-0.6-1.5-0.4-2.4c0.6-1.3,1.6-2,3.1-2
			C907.5,289.9,907.9,289.9,908.1,290z"/>
		<path d="M973.6,195.9v52.7h13.6c0.8,0,1.5,0.3,2.1,0.8c0.5,0.6,0.8,1.2,0.8,2V294c0,1.9-1,2.8-2.9,2.8c-0.8,0-1.6-0.3-2.2-0.8
			c-0.6-0.5-0.9-1.2-0.9-2.1v-39.9h-13.4c-0.8,0-1.6-0.3-2.2-0.8c-0.6-0.5-0.9-1.1-0.9-1.9v-52.9h-32.9c-2.1,0-3.1-0.9-3.1-2.7
			c0-1.9,1-2.8,3.1-2.8h36C972.6,193.1,973.6,194.1,973.6,195.9z M956.8,207.8c0.8,0,1.5,0.3,2.1,0.8c0.5,0.6,0.8,1.2,0.8,2
			c0,1.8-1,2.7-2.9,2.7h-22.1c-2.1,0-3.1-0.9-3.1-2.7c0-0.8,0.3-1.4,0.8-2c0.5-0.6,1.3-0.8,2.3-0.8H956.8z M973.8,306.9
			c0,1.8-1,2.7-2.9,2.7c-0.8,0-1.6-0.3-2.2-0.8c-0.6-0.5-0.9-1.1-0.9-1.9v-40.2c0-0.9,0.3-1.6,0.9-2.1c0.6-0.5,1.3-0.8,2.2-0.8
			c1.9,0,2.9,0.9,2.9,2.8V306.9z M987.1,193.1h23.5c1.9,0,2.9,0.9,2.9,2.8c0,1.8-1,2.7-2.9,2.7h-23.5c-0.8,0-1.6-0.3-2.2-0.8
			c-0.6-0.5-0.9-1.1-0.9-1.9c0-0.9,0.3-1.6,0.9-2.1C985.6,193.4,986.3,193.1,987.1,193.1z M984.1,236.7v-26c0-0.8,0.3-1.4,0.9-2
			c0.6-0.6,1.3-0.8,2.2-0.8h33.5c1,0,1.7,0.3,2.3,0.8c0.5,0.6,0.8,1.2,0.8,2c0,1.8-1,2.7-3.1,2.7H990v23.4c0,1.8-1,2.7-2.9,2.7
			c-0.8,0-1.6-0.3-2.2-0.8C984.4,238.1,984.1,237.4,984.1,236.7z M1021.7,192.9c1,0.2,1.6,0.7,2,1.5c0.4,0.8,0.4,1.6,0.2,2.3h-0.2
			c-0.4,1.4-1.4,2.2-3.1,2.2c-1.3-0.4-2.2-1-2.7-1.8c-0.5-0.7-0.6-1.5-0.4-2.3l0.2-0.2c0.4-1.3,1.4-2,3.1-2
			C1021.3,192.8,1021.6,192.8,1021.7,192.9z"/>
	</g>
</g>
</svg>
