<?xml version="1.0" encoding="utf-8"?>
<!-- Generator: Adobe Illustrator 25.3.1, SVG Export Plug-In . SVG Version: 6.00 Build 0)  -->
<!DOCTYPE svg [
	<!ENTITY ns_extend "http://ns.adobe.com/Extensibility/1.0/">
	<!ENTITY ns_ai "http://ns.adobe.com/AdobeIllustrator/10.0/">
	<!ENTITY ns_graphs "http://ns.adobe.com/Graphs/1.0/">
	<!ENTITY ns_vars "http://ns.adobe.com/Variables/1.0/">
	<!ENTITY ns_imrep "http://ns.adobe.com/ImageReplacement/1.0/">
	<!ENTITY ns_sfw "http://ns.adobe.com/SaveForWeb/1.0/">
	<!ENTITY ns_custom "http://ns.adobe.com/GenericCustomNamespace/1.0/">
	<!ENTITY ns_adobe_xpath "http://ns.adobe.com/XPath/1.0/">
]>
<svg version="1.2" baseProfile="tiny" id="Слой_1" xmlns:x="&ns_extend;" xmlns:i="&ns_ai;" xmlns:graph="&ns_graphs;"
	 xmlns="http://www.w3.org/2000/svg" xmlns:xlink="http://www.w3.org/1999/xlink" x="0px" y="0px" viewBox="0 0 1024 168"
	 overflow="visible" xml:space="preserve">
<metadata>
	<sfw  xmlns="&ns_sfw;">
		<slices></slices>
		<sliceSourceBounds  bottomLeftOrigin="true" height="162.7" width="1024" x="0" y="-593.3"></sliceSourceBounds>
	</sfw>
</metadata>
<g>
	<path d="M4,165.4c-1.2,0-2.1-0.4-2.9-1.1c-0.7-0.8-1.1-1.7-1.1-2.8V28.9c0-1.1,0.4-2,1.1-2.8C1.9,25.4,2.8,25,4,25h43.1
		c11.5,0,21.6,2.9,30.5,8.7c8.9,5.8,15.6,13.4,20.3,22.8c3.8,8.4,5.7,17.8,5.7,28.3c0,6.6-0.8,12.9-2.4,19.1
		c-1.6,6.1-4,11.8-7.3,16.9c-3.3,5.1-7.6,9.7-12.7,13.6c-5.1,3.9-11.3,6.9-18.4,9.1c-3,0-4.7-0.8-5.2-2.5c-0.3-1.1-0.2-2.1,0.2-3
		c0.5-0.9,1.3-1.5,2.5-1.8c2.7-0.8,6-2.1,10-4c4-1.9,7.8-4.8,11.6-8.7c3.7-3.9,6.9-9,9.6-15.2c2.7-6.2,4-14,4-23.3
		c0-8-1.3-15.4-3.9-22.4c-2.6-7-7.1-13.2-13.6-18.7c-4.3-3.5-9.2-6.2-14.6-8.2c-5.4-1.9-10.8-2.9-16.3-2.9H8.2v128.9
		c0,1.1-0.4,2-1.2,2.8C6.1,165,5.1,165.4,4,165.4z M25.7,13.1c-1.2,0-2.2-0.3-3-1c-0.8-0.7-1.2-1.6-1.2-2.6c0-1.1,0.4-2,1.2-2.8
		c0.8-0.8,1.8-1.1,3-1.1h26.9c7.1,0,14,1.1,20.7,3.2c6.6,2.1,12.8,5.1,18.4,8.7c5.6,3.7,10.7,8.1,15.2,13.2
		c4.5,5.1,8.1,10.7,10.7,16.7c5.3,11.5,8,24.5,8,39.1c0,10.7-1.5,20.9-4.5,30.4c-3,9.6-7.5,17.9-13.6,25c-6.1,7.1-13.7,12.8-22.8,17
		c-9.1,4.2-19.8,6.3-32.1,6.3H25.9c-1.2,0-2.2-0.3-3-1c-0.8-0.7-1.2-1.6-1.2-2.6V46.4c0-1.2,0.4-2.2,1.2-2.9c0.8-0.7,1.8-1,3-1
		c2.7,0,4,1.3,4,3.9v111.2h22.7c13.1,0,24.9-3,35.2-9.1c10.4-6.1,18-14.7,22.8-26.1c4.5-10.1,6.7-22.1,6.7-36.1
		c0-11-1.8-21.6-5.4-31.8c-3.6-10.2-9.9-19-19.1-26.5c-6.8-5.5-13.9-9.4-21.3-11.6c-7.4-2.2-13.7-3.3-19.1-3.3H25.7z M47.8,145.9
		c-2-0.5-3.3-1.2-4-2.2c-0.7-1-0.7-2.1-0.2-3.3c0.3-1.4,1.1-2.2,2.2-2.4c1.2-0.2,2.3-0.3,3.5-0.3c1.2,0.5,2,1.2,2.5,2.2
		c0.5,1,0.6,2,0.2,3.1v0.2C51.2,145,49.8,145.9,47.8,145.9z"/>
	<path d="M153.2,84.3c0-7.4,1-14.6,3.1-21.8c2.1-7.2,5.1-14,9-20.3c3.9-6.4,8.7-12.1,14.3-17.3c5.6-5.2,12-9.5,19.2-12.9
		c0.3-0.3,1-0.5,2-0.5c1.5,0,2.7,0.6,3.5,1.8c0.7,1.1,0.8,2.1,0.4,3.1c-0.4,1-1.1,1.7-2.1,2.2c-6.5,3.2-12.3,7.2-17.4,11.8
		c-5.1,4.7-9.5,9.9-12.9,15.6c-3.5,5.7-6.1,11.9-8,18.4c-1.8,6.5-2.7,13.1-2.7,19.9c0,9.3,1.8,18.4,5.4,27.2
		c3.6,8.8,8.5,16.6,14.9,23.3c6.4,6.7,14,12.1,22.9,16.2c8.9,4.1,18.6,6.1,29.3,6.1c10.6,0,20.3-2,29.1-6.1
		c8.8-4.1,16.4-9.5,22.8-16.3c6.4-6.8,11.4-14.6,14.9-23.3c3.6-8.7,5.4-17.8,5.4-27.1c0-9-1.7-17.8-5-26.3
		c-3.3-8.5-8-16.1-13.9-22.7c-6-6.7-13.2-12.1-21.5-16.4c-8.4-4.3-17.6-6.7-27.8-7.4v16.3c0,2.5-1.3,3.7-4,3.7
		c-7.6,0-14.6,1.5-20.9,4.4c-6.3,2.9-11.7,6.8-16.1,11.7c-4.4,4.9-7.8,10.5-10.2,16.8c-2.4,6.3-3.6,12.8-3.6,19.5
		c0,6.6,1.2,13,3.6,19.3c2.4,6.3,5.9,11.9,10.3,16.8c4.5,4.9,9.8,8.8,16.1,11.7c6.2,2.9,13.2,4.4,20.8,4.4c7.6,0,14.6-1.5,20.9-4.4
		c6.3-2.9,11.7-6.8,16.2-11.6c4.5-4.8,7.9-10.4,10.3-16.7c2.4-6.3,3.6-12.8,3.6-19.5c0-11-2.9-20.9-8.6-29.6
		c-5.7-8.7-13.5-15.1-23.3-19.1c-1-0.3-1.7-1-2.1-2c-0.4-1-0.4-2,0.1-2.9c0.5-1.5,1.7-2.3,3.7-2.3c0.7,0,1.2,0.1,1.5,0.2
		c5.6,2.3,10.7,5.3,15.2,9.1c4.5,3.8,8.3,8,11.6,12.9c3.2,4.8,5.7,10.1,7.5,15.7c1.7,5.7,2.6,11.6,2.6,17.9c0,7.8-1.5,15.3-4.4,22.5
		c-2.9,7.2-6.9,13.6-12.1,19.1c-5.1,5.5-11.4,9.9-18.7,13.2c-7.3,3.3-15.4,4.9-24.2,4.9c-8.8,0-16.8-1.7-24-5.1
		c-7.2-3.4-13.4-7.8-18.7-13.3c-5.2-5.5-9.3-11.9-12.1-19.1c-2.8-7.2-4.2-14.6-4.2-22.3c0-7.4,1.3-14.5,3.9-21.5
		c2.6-7,6.3-13.2,11.1-18.6c4.8-5.4,10.6-10,17.3-13.6c6.7-3.6,14.2-5.6,22.5-6.1V7.6c0-2.4,1.4-3.7,4.2-3.7
		c11.8,0,22.6,2.3,32.4,6.8c9.8,4.5,18.3,10.5,25.4,17.9c7.1,7.4,12.7,16,16.7,25.6c4,9.7,6,19.7,6,30.1c0,10.4-2,20.5-6,30.2
		c-4,9.7-9.5,18.3-16.7,25.7c-7.1,7.4-15.7,13.4-25.5,17.8c-9.9,4.4-20.6,6.7-32.3,6.7c-11.8,0-22.6-2.2-32.5-6.7
		c-9.9-4.4-18.4-10.4-25.5-17.8c-7.1-7.4-12.7-16-16.7-25.7C155.2,104.8,153.2,94.7,153.2,84.3z M209.4,8.9c0.5-1.8,1.9-2.8,4.2-2.8
		c0.7,0,1.2,0.1,1.5,0.2c1.2,0.3,2,1,2.5,2.1c0.5,1.1,0.6,2.1,0.2,3.2c-0.8,2-2.2,3-4.2,3c-2-0.6-3.3-1.4-4-2.4
		c-0.7-1-0.7-2-0.2-3.1V8.9z"/>
	<path d="M331,84.3c0-7.4,1-14.6,3.1-21.8c2.1-7.2,5.1-14,9-20.3c3.9-6.4,8.7-12.1,14.3-17.3c5.6-5.2,12-9.5,19.2-12.9
		c0.3-0.3,1-0.5,2-0.5c1.5,0,2.7,0.6,3.5,1.8c0.7,1.1,0.8,2.1,0.4,3.1c-0.4,1-1.1,1.7-2.1,2.2c-6.5,3.2-12.3,7.2-17.4,11.8
		c-5.1,4.7-9.5,9.9-12.9,15.6c-3.5,5.7-6.1,11.9-8,18.4c-1.8,6.5-2.7,13.1-2.7,19.9c0,9.3,1.8,18.4,5.4,27.2
		c3.6,8.8,8.5,16.6,14.9,23.3c6.4,6.7,14,12.1,22.9,16.2c8.9,4.1,18.6,6.1,29.3,6.1c10.6,0,20.3-2,29.1-6.1
		c8.8-4.1,16.4-9.5,22.8-16.3c6.4-6.8,11.4-14.6,14.9-23.3c3.6-8.7,5.4-17.8,5.4-27.1c0-9-1.7-17.8-5-26.3
		c-3.3-8.5-8-16.1-13.9-22.7c-6-6.7-13.2-12.1-21.5-16.4c-8.4-4.3-17.6-6.7-27.8-7.4v16.3c0,2.5-1.3,3.7-4,3.7
		c-7.6,0-14.6,1.5-20.9,4.4c-6.3,2.9-11.7,6.8-16.1,11.7c-4.4,4.9-7.8,10.5-10.2,16.8c-2.4,6.3-3.6,12.8-3.6,19.5
		c0,6.6,1.2,13,3.6,19.3c2.4,6.3,5.9,11.9,10.3,16.8c4.5,4.9,9.8,8.8,16.1,11.7c6.2,2.9,13.2,4.4,20.8,4.4c7.6,0,14.6-1.5,20.9-4.4
		c6.3-2.9,11.7-6.8,16.2-11.6c4.5-4.8,7.9-10.4,10.3-16.7c2.4-6.3,3.6-12.8,3.6-19.5c0-11-2.9-20.9-8.6-29.6
		c-5.7-8.7-13.5-15.1-23.3-19.1c-1-0.3-1.7-1-2.1-2c-0.4-1-0.4-2,0.1-2.9c0.5-1.5,1.7-2.3,3.7-2.3c0.7,0,1.2,0.1,1.5,0.2
		c5.6,2.3,10.7,5.3,15.2,9.1c4.5,3.8,8.3,8,11.6,12.9c3.2,4.8,5.7,10.1,7.5,15.7c1.7,5.7,2.6,11.6,2.6,17.9c0,7.8-1.5,15.3-4.4,22.5
		c-2.9,7.2-6.9,13.6-12.1,19.1c-5.1,5.5-11.4,9.9-18.7,13.2c-7.3,3.3-15.4,4.9-24.2,4.9c-8.8,0-16.8-1.7-24-5.1
		c-7.2-3.4-13.4-7.8-18.7-13.3c-5.2-5.5-9.3-11.9-12.1-19.1c-2.8-7.2-4.2-14.6-4.2-22.3c0-7.4,1.3-14.5,3.9-21.5
		c2.6-7,6.3-13.2,11.1-18.6c4.8-5.4,10.6-10,17.3-13.6c6.7-3.6,14.2-5.6,22.5-6.1V7.6c0-2.4,1.4-3.7,4.2-3.7
		c11.8,0,22.6,2.3,32.4,6.8c9.8,4.5,18.3,10.5,25.4,17.9c7.1,7.4,12.7,16,16.7,25.6c4,9.7,6,19.7,6,30.1c0,10.4-2,20.5-6,30.2
		c-4,9.7-9.5,18.3-16.7,25.7c-7.1,7.4-15.7,13.4-25.5,17.8c-9.9,4.4-20.6,6.7-32.3,6.7c-11.8,0-22.6-2.2-32.5-6.7
		c-9.9-4.4-18.4-10.4-25.5-17.8c-7.1-7.4-12.7-16-16.7-25.7C333,104.8,331,94.7,331,84.3z M387.3,8.9c0.5-1.8,1.9-2.8,4.2-2.8
		c0.7,0,1.2,0.1,1.5,0.2c1.2,0.3,2,1,2.5,2.1c0.5,1.1,0.6,2.1,0.2,3.2c-0.8,2-2.2,3-4.2,3c-2-0.6-3.3-1.4-4-2.4
		c-0.7-1-0.7-2-0.2-3.1V8.9z"/>
	<path d="M522.7,29.2c0-1.1,0.4-2,1.1-2.8c0.7-0.8,1.8-1.1,3.1-1.1h32.4c4.5,0,8.8,0.5,12.8,1.5c4.1,1,7.6,2.6,10.6,4.7
		c3,2.1,5.4,4.9,7.2,8.3c1.8,3.4,2.7,7.4,2.7,11.9c0,4.6-0.9,8.6-2.6,11.9c-1.7,3.4-4.2,6.2-7.2,8.6c-3.1,2.4-6.6,4.1-10.7,5.3
		c-4.1,1.1-8.3,1.7-12.8,1.7h-10.2c-2.7,0-4-1.2-4-3.7V59.5c0-2.4,1.3-3.7,4-3.7c1.2,0,2.2,0.3,3,1c0.8,0.7,1.2,1.6,1.2,2.6v12.2h6
		c6.8,0,12.7-1.6,17.7-4.8c5-3.2,7.5-8.3,7.5-15.2c0-3.5-0.7-6.5-2.1-8.8c-1.4-2.4-3.2-4.3-5.5-5.9c-2.2-1.5-4.9-2.6-8-3.2
		c-3.1-0.6-6.3-0.9-9.6-0.9H531v129.6c0,1.1-0.4,2-1.1,2.8c-0.7,0.8-1.7,1.1-2.9,1.1c-1.3,0-2.4-0.4-3.1-1.1
		c-0.7-0.8-1.1-1.7-1.1-2.8V29.2z M549.1,148.7c-2.7,0-4-1.2-4-3.7V95.6c0-2.4,1.3-3.7,4-3.7h19.4c2.2,0,5.4-0.5,9.6-1.6
		c4.2-1.1,8.5-3.1,12.8-6.2c10.1-7.7,15.2-19,15.2-34c0-5.4-0.8-10.3-2.5-14.9c-1.7-4.6-4.1-8.5-7.2-11.8c-3.2-3.3-7.1-5.9-11.8-7.8
		c-4.7-1.9-10.1-2.9-16.1-2.9h-19.7c-1.2,0-2.2-0.4-3-1.1c-0.8-0.8-1.2-1.7-1.2-2.8c0-1.1,0.4-2,1.2-2.6c0.8-0.7,1.8-1,3-1h19.7
		c7.3,0,13.8,1.1,19.5,3.4c5.7,2.3,10.5,5.5,14.4,9.5c3.9,4.1,6.8,8.8,8.8,14.4c2,5.5,3,11.4,3,17.7c0,7.5-1.4,14.8-4.2,21.9
		c-2.8,7.1-7.6,13.1-14.2,17.8c-4.8,3.5-9.8,6-14.8,7.5c-5.1,1.5-9.3,2.2-12.6,2.2h-15.2V145c0,1.1-0.4,2-1.2,2.6
		C551.3,148.3,550.3,148.7,549.1,148.7z M547.9,50.5c-1.3-0.3-2.2-1-2.7-2c-0.5-1-0.6-2-0.2-3.1v-0.2c0.8-1.8,2.3-2.8,4.5-2.8
		c0.5,0,0.9,0.1,1.2,0.2c1.3,0.3,2.2,1,2.7,2c0.5,1,0.6,2.1,0.2,3.3h-0.2c-0.5,1.8-1.9,2.8-4.2,2.8L547.9,50.5z"/>
	<path d="M648.7,144.1c-2.7,0-4-1.2-4-3.7V7.3c0-2.4,1.3-3.7,4-3.7c2.8,0,4.2,1.2,4.2,3.7v129.1h66.2c1.3,0,2.4,0.4,3.1,1.1
		c0.7,0.8,1.1,1.7,1.1,2.8c0,2.5-1.4,3.7-4.2,3.7H648.7z M667.2,28c0-2.4,1.3-3.7,4-3.7c1.2,0,2.2,0.3,3,1c0.8,0.7,1.2,1.6,1.2,2.6
		v94c0,1.1-0.4,2-1.2,2.6c-0.8,0.7-1.8,1-3,1c-2.7,0-4-1.2-4-3.7V28z M667.4,160.1c0-1.1,0.4-2,1.2-2.6c0.8-0.7,1.8-1,3-1h61.3
		c2.7,0,4,1.2,4,3.7c0,1.1-0.4,2-1.1,2.8c-0.7,0.8-1.7,1.1-2.9,1.1h-61.3c-1.2,0-2.2-0.4-3-1.1C667.8,162.1,667.4,161.2,667.4,160.1
		z M733.2,144.5c-1.8-0.5-3.1-1.2-3.7-2.3c-0.7-1.1-0.8-2.1-0.5-3.2v-0.2c0.8-1.8,2.2-2.8,4.2-2.8c0.3,0,0.6,0,0.7,0.1
		c0.2,0.1,0.4,0.1,0.7,0.1c1.3,0.3,2.2,1,2.7,2.1c0.5,1.1,0.5,2.1,0,3.2v0.2C736.9,143.6,735.5,144.5,733.2,144.5z"/>
	<path d="M773.8,79.3c-1.2,0-2.2-0.4-3-1.1c-0.8-0.8-1.2-1.7-1.2-2.8V8.2c0-1.1,0.4-2,1.2-2.8c0.8-0.8,1.8-1.1,3-1.1
		c1.2,0,2.1,0.4,2.9,1.1c0.7,0.8,1.1,1.7,1.1,2.8v63.4h64c1.2,0,2.2,0.3,3,1c0.8,0.7,1.2,1.6,1.2,2.6c0,1.1-0.4,2-1.2,2.8
		c-0.8,0.8-1.8,1.1-3,1.1H773.8z M773.8,166.1c-1.2,0-2.2-0.4-3-1.1c-0.8-0.8-1.2-1.7-1.2-2.8V95.6c0-1.1,0.4-2,1.2-2.8
		c0.8-0.8,1.8-1.1,3-1.1h68c1.2,0,2.2,0.4,3,1.1c0.8,0.8,1.2,1.7,1.2,2.8c0,1.1-0.4,2-1.2,2.6c-0.8,0.7-1.8,1-3,1h-64v59.3h86.4
		c2.7,0,4,1.2,4,3.7c0,1.1-0.4,2-1.1,2.8c-0.7,0.8-1.7,1.1-2.9,1.1H773.8z M794.2,12.6c-1.2,0-2.1-0.4-2.9-1.1
		c-0.7-0.8-1.1-1.7-1.1-2.8c0-2.4,1.3-3.7,4-3.7h70c1.2,0,2.2,0.3,3,1c0.8,0.7,1.2,1.6,1.2,2.6c0,1.1-0.4,2-1.2,2.8
		c-0.8,0.8-1.8,1.1-3,1.1H794.2z M863.7,25c1.2,0,2.2,0.4,3,1.1c0.8,0.8,1.2,1.7,1.2,2.8c0,1.1-0.4,2-1.2,2.6c-0.8,0.7-1.8,1-3,1
		h-64.5v25.7c0,1.1-0.4,2-1.2,2.8c-0.8,0.8-1.8,1.1-3,1.1c-1.2,0-2.1-0.4-2.9-1.1c-0.7-0.8-1.1-1.7-1.1-2.8V28.9
		c0-1.1,0.4-2,1.1-2.8c0.7-0.8,1.7-1.1,2.9-1.1H863.7z M794.9,108c1.2,0,2.2,0.3,3,1c0.8,0.7,1.2,1.6,1.2,2.9V139H849
		c1.2,0,2.2,0.4,3,1.1c0.8,0.8,1.2,1.7,1.2,2.8c0,1.1-0.4,2-1.2,2.6c-0.8,0.7-1.8,1-3,1h-54c-2.7,0-4-1.2-4-3.7v-31
		C790.9,109.3,792.3,108,794.9,108z M864.4,138.8c1.2,0.3,2,1,2.5,2c0.5,1,0.6,2,0.2,3.1v0.2c-0.8,1.8-2.2,2.8-4.2,2.8
		c-1.8-0.5-3.1-1.2-3.7-2.2c-0.7-1-0.8-2.1-0.5-3.3c0.8-1.8,2.2-2.8,4.2-2.8C863.6,138.5,864.1,138.6,864.4,138.8z"/>
	<path d="M954.6,9.2v72.6h18.7c1.2,0,2.1,0.4,2.9,1.1c0.7,0.8,1.1,1.7,1.1,2.8v58.6c0,2.6-1.3,3.9-4,3.9c-1.2,0-2.2-0.3-3-1
		c-0.8-0.7-1.2-1.6-1.2-2.9V89.4h-18.4c-1.2,0-2.2-0.3-3-1c-0.8-0.7-1.2-1.6-1.2-2.6V12.8H901c-2.8,0-4.2-1.2-4.2-3.7
		c0-2.6,1.4-3.9,4.2-3.9h49.6C953.2,5.3,954.6,6.6,954.6,9.2z M931.4,25.5c1.2,0,2.1,0.4,2.9,1.1c0.7,0.8,1.1,1.7,1.1,2.8
		c0,2.5-1.3,3.7-4,3.7H901c-2.8,0-4.2-1.2-4.2-3.7c0-1.1,0.4-2,1.1-2.8c0.7-0.8,1.8-1.1,3.1-1.1H931.4z M954.8,162
		c0,2.5-1.3,3.7-4,3.7c-1.2,0-2.2-0.3-3-1c-0.8-0.7-1.2-1.6-1.2-2.6v-55.4c0-1.2,0.4-2.2,1.2-2.9c0.8-0.7,1.8-1,3-1
		c2.7,0,4,1.3,4,3.9V162z M973.2,5.3h32.4c2.7,0,4,1.3,4,3.9c0,2.5-1.3,3.7-4,3.7h-32.4c-1.2,0-2.2-0.3-3-1
		c-0.8-0.7-1.2-1.6-1.2-2.6c0-1.2,0.4-2.2,1.2-2.9C971.1,5.6,972.1,5.3,973.2,5.3z M969,65.2V29.4c0-1.1,0.4-2,1.2-2.8
		c0.8-0.8,1.8-1.1,3-1.1h46.1c1.3,0,2.4,0.4,3.1,1.1c0.7,0.8,1.1,1.7,1.1,2.8c0,2.5-1.4,3.7-4.2,3.7h-42.1v32.2c0,2.5-1.3,3.7-4,3.7
		c-1.2,0-2.2-0.3-3-1C969.4,67.2,969,66.3,969,65.2z M1020.8,5c1.3,0.3,2.2,1,2.7,2.1c0.5,1.1,0.6,2.1,0.2,3.2h-0.2
		c-0.5,2-1.9,3-4.2,3c-1.8-0.6-3.1-1.4-3.7-2.4c-0.7-1-0.8-2-0.5-3.1l0.2-0.2c0.5-1.8,1.9-2.8,4.2-2.8
		C1020.2,4.8,1020.6,4.9,1020.8,5z"/>
</g>
</svg>
